<?xml version="1.0" encoding="utf-8"?>
<!-- Generator: Adobe Illustrator 19.0.0, SVG Export Plug-In . SVG Version: 6.00 Build 0)  -->
<svg version="1.1" id="Layer_1" xmlns="http://www.w3.org/2000/svg" xmlns:xlink="http://www.w3.org/1999/xlink" x="0px" y="0px"
	 width="1400px" height="980px" viewBox="0 0 1400 980" style="enable-background:new 0 0 1400 980;" xml:space="preserve">
<style type="text/css">
	.st0{clip-path:url(#XMLID_21_);}
	.st1{fill:url(#XMLID_22_);}
	.st2{opacity:0.5;}
	.st3{fill:#34475B;}
	.st4{fill:#C5D9EA;}
	.st5{fill:#D6D5D3;}
	.st6{fill:#273A4C;}
	.st7{fill:#53601C;}
	.st8{fill:#707022;}
	.st9{fill:#A3802B;}
	.st10{fill:#A5A046;}
	.st11{fill:#919A4B;}
	.st12{fill:#4B5520;}
	.st13{fill:#8F2C15;}
	.st14{fill:#160A0C;}
	.st15{opacity:0.4;}
	.st16{fill:#DADDE4;}
	.st17{opacity:0.2;}
	.st18{fill:#F73939;}
	.st19{opacity:0.4;fill:#F73939;}
	.st20{fill:#0B090E;}
	.st21{fill:#344051;}
	.st22{fill:#27323F;}
	.st23{fill:#DAD2B7;}
	.st24{fill:url(#XMLID_23_);}
	.st25{fill:#596C82;}
	.st26{fill:#3A361B;}
	.st27{fill:url(#XMLID_24_);}
	.st28{fill:url(#XMLID_25_);}
</style>
<g id="XMLID_18_">
	<defs>
		<rect id="XMLID_5_" width="1400" height="980"/>
	</defs>
	<clipPath id="XMLID_21_">
		<use xlink:href="#XMLID_5_"  style="overflow:visible;"/>
	</clipPath>
	<g id="XMLID_4_" class="st0">
		<linearGradient id="XMLID_22_" gradientUnits="userSpaceOnUse" x1="700" y1="-49" x2="700" y2="450.9549">
			<stop  offset="0" style="stop-color:#6E91B8"/>
			<stop  offset="0.4085" style="stop-color:#92ACC8"/>
			<stop  offset="0.7795" style="stop-color:#ACC0D4"/>
			<stop  offset="1" style="stop-color:#B6C7D8"/>
		</linearGradient>
		<rect id="XMLID_443_" class="st1" width="1400" height="980"/>
		<g id="XMLID_1_">
			<g id="XMLID_450_" class="st2">
				<g id="XMLID_713_">
					<path id="XMLID_715_" class="st3" d="M929.8,414c-2.5-0.7-4.8-1.7-7.3-2.1c-4.2-0.7-7.7-2.9-11.6-4.5
						c-3.7-1.5-7.7-3.1-11.7-3.1c-4.7,0-9.3,0.4-13.9-0.1c-4.7-0.5-9.5-2.2-13.6-4.5c-2.7-1.5-5.1-3.6-8-4.7
						c-2.3-0.9-4.8-1.7-7.1-2.9c-2.5-1.3-4.1-2.4-7-2c-1.9,0.2-3.3,0.6-5.2,0c-1.1-0.3-2.1-0.7-3.2-0.8c-3.4-0.3-7.7-2-10.2-4.5
						c-1.4-1.3-2.7-2.7-4.3-3.8c-1.1-0.7-2-1.3-2.8-2.3c-1-1.1-2.1-1.8-3.5-2.6c-1.2-0.6-3.4-2.1-4.7-2.2c-1.1-0.1-2.1,0.9-3.1,1.1
						c-1.1,0.3-2.5,0.3-3.7,0.4c-0.7,0.1-1.6,0.1-2.3,0.3c-0.6,0.2-0.8,0.3-1.6,0.1c-0.6,1.7-1.8,2.4-3.4,2.2
						c-0.5-0.3-1-0.5-1.5-0.4c-0.8,0.1-2.2,1.3-2.9,1.5c-2.8,1.1-5.5,2.2-8,3.8c-3,2-6.5,3.1-9.7,4.7c-2.6,1.2-4.7,3.1-7.2,4.3
						c-3.2,1.6-6.6,0.2-10,0.4c-3.8,0.3-8.2,3.4-11.5,5.3c-2,1.2-2.8,1.7-5.2,1.1c-1-0.3-1.3-0.8-2.2-1.3c-0.6-0.3-1.6-0.4-2.3-0.7
						c-2-0.9-4.1-1.8-5.9-3c-2.4-1.5-4.5-2.7-7.4-2.2c-4.1,0.7-8.6,4.9-12.9,2.9c-3.5-1.6-5.8-5.9-9.9-6.3c-2.9-0.3-5,1.4-7.6,2.3
						c-2.3,0.8-4.4,1.9-6.8,2.7c-2.8,0.9-5.3,2.5-8.2,3.3c-0.5,0.1-1.8,0.6-2.4,0.4c-0.9-0.3-1.4-1.2-2.2-1.6
						c-0.7-0.4-1.6-0.6-2.4-0.9c-2.1-0.9-3.6-1.4-5.8-1.7c-1.7-0.2-3.2-0.7-4.8-1c-1.3-0.2-2.6-0.1-3.8-0.6c-1.6-0.6-4-2.4-4.9-3.8
						c-1.4-2-2.3-2.6-4.2-3.9c-2.7-1.9-4.5-5.1-7.3-6.7c-2.1-1.2-4.3-0.9-6.6-0.2c-1.4,0.4-2.4,1-3.8,0.5c-1.1-0.4-2.1-1.2-3.2-1.6
						c-3-1.2-6.3-3.7-9.6-3.8c-1.7-0.1-3.9,0.3-5.5,0.7c-1.2,0.3-2.2,0.9-3.1,1.5c-1.2,0.7-2.4,1-3.6,1.7c-1.8,0.9-2.6,3-4.3,3.8
						c-2,0.9-4.9-0.6-7-0.5c-0.5,0-1.2,0.1-1.7,0.3c-1.2,0.6-1.1,1.9-1.9,2.6c-0.7,0.6-1.7,0.6-2.4,1.2c-0.8,0.7-1.1,2.7-2.1,3.1
						c-1.1,0.5-3-0.3-4-0.7c-2.4-1-5.9-2.2-8.5-1.5c-3.3,0.8-4.4,4-7.9,2.9c-3.3-1-5.6,0.7-8.7,1.6c-2.6,0.7-5,1.5-7.5,2.6
						c-1.3,0.5-2.5,0.9-3.7,1.5c-0.7,0.3-1.8,0.6-2.4,0.9c-1.2,0.6-1.6,2.5-2.4,3.6c-1,1.5-2.1,2.3-3.8,2.9
						c-2.1,0.8-4.7,0.4-6.9,1.1c-3.1,1-5.8,3-8.9,3.9c-3.4,0.9-6.2,0.8-9.3-0.6c-2-1-3.8-1.3-6-1.6c-1.5-0.2-3.1-1-4.6-0.9
						c-1.5,0.1-2.6,1.4-3.4,2.5c-0.4,0.6-0.8,2-1.7,1.9c-0.2,0-0.8-0.8-1-0.9c-0.8-0.5-1.7-0.6-2.5-1c-0.8-0.4-1.4-1.2-2.2-1.7
						c-2.2-1.5-4.4-3.1-6.8-4.1c-1.1-0.4-2.3-1.3-3.5-1.5c-0.7-0.1-1.2,0.2-1.9,0.1c-0.7,0-1.3-0.4-2-0.5c-1.2-0.1-2.6,0.5-3.8,0.5
						c-0.8,0-1.5-0.2-2.3-0.2c-2.6-0.2-6.4,0.3-8.9,1.1c-1.6,0.5-2.9,1.5-4.6,1.8c-1,0.2-2,0.2-3,0.3c-2.2,0.3-3.9,0.5-5.9,0.2
						c-1.7-0.2-2.7,0.4-4.2,0.9c-1.6,0.5-2.4,0.1-4,0c-1.3-0.1-2.4,0.2-3.7,0c-1.4-0.2-2.7-0.4-4.1-0.7c-1.6-0.4-3.5-0.3-5.1-0.9
						c-1.7-0.6-2.2-0.9-4-0.6c-2.7,0.4-5.5,0.7-8.2,1c-3.3,0.4-6.3,1.6-9.5,2.5c-1.3,0.4-2.9,0.3-4.3,0.5c-1.5,0.2-1.8,0.1-3.1-0.4
						c-0.5-0.2-1.1-0.1-1.5-0.2c-0.6-0.3-0.7-0.6-1.4-1c-1.4-0.9-2.7-2-4.2-2.7c-1.6-0.7-5-1.7-6.6-1.1c-3.8,1.5-7.8,3.1-11.7,4.3
						c-2.7,0.9-6,0.9-8.8,1.2c-2.6,0.3-5.2,0-7.8,0.3c-3.4,0.5-7,1.2-10.5,1.2c-1.1,0-2.1,0.1-3.2,0.1l3.1,84
						c3.4-0.2,6.9-0.4,10.3-0.9c4.8-0.6,9.5-1.2,14.3-1.2c2,0,3.9-0.4,5.9-0.2c2,0.2,4-0.5,6-0.6c3.1-0.2,6.2,0.4,9.2,0.2
						c1.3-0.1,2.5-0.4,3.8-0.4c1.5,0.1,2.9,0.5,4.4,0.6c2.7,0.1,5.7,0.2,8.3,1.1c1.8,0.6,3.6,1.4,5.5,1.8c1.7,0.4,3.4-0.1,5.1-0.3
						c5-0.6,10.6-2.1,15.6-1c5.6,1.3,11.4,0.5,16.8,1.6c2.6,0.5,5.9,0.4,8.6,0c1-0.1,2-0.4,3-0.4c0.7,0,1.3,0.3,2,0.3
						c1.5,0.1,1.8-0.3,3.2-0.8c2.7-0.9,7-1.5,9.7-0.7c1.6,0.4,2.8,0.7,4.5,0.9c0.6,0.1,1.1,0.3,1.8,0.3c0.8,0,1.7-0.5,2.6-0.3
						c1.4,0.4,1.8,2.2,3,2.8c1.5,0.8,3.4,0.1,5-0.1c1.8-0.2,3.2-0.6,5,0c1.8,0.6,3.1,1.2,5,1.5c1.1,0.1,2.1,0.7,3.3,0.8
						c1.2,0,1.9-0.2,3.1,0.1c2.5,0.5,4.9,0.4,7.4,0.6c3.3,0.2,6.4,0.4,9.7,0.8c1.9,0.2,4,0.3,5.9,0.3c0.8,0,1.6-0.3,2.3-0.3
						c0.8,0,1.3,0.3,2.1,0.3c2.8,0.2,5.7-1.6,8.1-2.8c3.3-1.8,6.9-3.4,10.6-3.9c5.9-0.7,11.6,1.1,17.5,0.4c2.4-0.3,5.2-1,7.6-0.8
						c4,0.3,7.8,3.1,11.3,4.8c1.7,0.9,3.4,1.7,5.2,2.5c1.1,0.5,1.7,0.8,2.9,1.1c1.5,0.3,2.7,0,4.5-0.1c2-0.2,3.4,0.8,5.3,1.2
						c1,0.2,1.8,0.3,2.8,0.5c2,0.6,4.1,1.1,6.2,1.3c2.2,0.2,4.5,0.6,6.7,0.7c6.8,0.1,13.5-1.7,20.3-1.8c2.9,0,5.8-0.4,8.8-0.5
						c1.2,0,2.3,0.4,3.5,0.2c1.4-0.2,2.7-0.9,4-1.5c1.6-0.7,3.4-1.3,4.8-2.3c1.3-1,2.3-2.4,3.8-3.2c1.7-0.8,3.6-0.9,5.5-0.7
						c3.6,0.4,8.8,4.6,12.1,2.6c1.5-0.9,2.6-1.7,4.2-2.4c1-0.5,2.2-1.5,3.2-1.6c1.1-0.1,2.6,0.7,3.6,1.2c2.3,1,4.4,2.7,6.6,3.9
						c2.5,1.4,4.9,3.8,7.6,4.7c1.9,0.6,3.8,1.2,5.7,1.5c2.6,0.5,4.6,1.3,7.2,1.4c2.2,0.1,5.1,0,7.1,1c1.1,0.5,1.4,0.9,2.7,1.1
						c2.8,0.4,5.9,0,8.7,0c4.9,0,8.8-0.1,13.6-0.4c3.6-0.2,7.2,0.4,10.8,0.9c3.5,0.4,7,0.1,10.5-0.4c2-0.3,3.5-0.2,5.5,0
						c0.7,0.1,1.2,0,2,0.2c0.7,0.2,1,0.8,1.9,0.7c0.3,2,3,3.6,4.7,4.4c2.3,1.1,3.6,0.8,6.1,0.5c3-0.4,6.1-0.7,9.1-1.1
						c1.5-0.2,2.9,0.1,4.1,0.7c2.4,1.2,4,3.2,6.7,4.1c1.9,0.6,3.4,0.3,5.4,0.1c4.4-0.5,8.7-1,13.1-1.6c2.1-0.3,4,0.1,6.1-0.1
						c1.8-0.1,3.6-0.5,5.4-0.7c1.9-0.2,4.6-0.1,6.4-0.8c1.2-0.4,1.6-1.5,2.5-2.4c1.4-1.4,3.4-2.9,5.1-4c2.4-1.7,4.2-2.1,7.1-2.4
						c2.9-0.4,5.9-0.7,8.8-1.1c2.2-0.3,4.7-1,7-0.9c1.3,0,2.2,0.8,3.5,0.9c2.1,0.2,4.5-0.8,6.5-1.3c3.3-0.9,7.1-1.2,10.6-1.5
						c2.4-0.2,3.9,1.9,6.2,2.3c3,0.5,5.7,0.1,8.8-0.3c0,0.2,1.3-0.4,1.3-0.3c1.8,0.3,4.2-0.4,5.8-1c3.8-1.4,7.6-3.1,11.5-4.4
						c1.2-0.4,2.3-0.9,3.4-1.4l-2-75.1c-2.4-0.7-4.8-1.3-7.2-1.9C936.2,415,932.9,414.9,929.8,414z"/>
				</g>
				<path id="XMLID_711_" class="st4" d="M415.8,402.1c-1.5,0.3-3,1.1-4.3,1.8c-0.6,0.3-1.3,0.7-2,0.9c-0.5,0.2-0.4,0.2-0.8,0.5
					c-0.5,0.4-2.2,1-2,1.7c0.2,0.8,1.6,0.5,2.1,0.3c0.4-0.1,0.9-0.6,1.3-0.5c0.5,0.1,0.5,0.6,0.9,0.8c0.3,0.2,0.7,0,1.1,0
					c0.5-0.1,0.4-0.1,0.7-0.5c0.3-0.5,0.6-0.9,0.9-1.4c0.1-0.2,0.4-0.3,0.4-0.6c0-0.2-0.2-0.2-0.2-0.3
					C413.7,404.4,414.8,403.5,415.8,402.1z"/>
				<path id="XMLID_712_" class="st4" d="M425.6,400c-0.6,0.2-1.2,0.4-1.9,0.5c-0.4,0-0.8,0.1-1.3,0.2c-0.4,0-0.6,0.3-1,0.4
					c0,0.1,0,0.1,0,0.2l-0.8,0.1c-0.7,0-1.4,0.9-1.7,1.3c-0.4,0.5-0.8,0.7-1.3,1.1c-0.1,0.1-0.8,0.5-0.8,0.7
					c-0.1,0.3,0.2,0.3,0.4,0.5c0.2,0.3-0.1,0.8,0.3,0.9c0.3,0,1-0.4,1.2-0.5c0.4-0.2,0.9-0.3,1.2-0.5c0.3-0.2,0.5-0.5,0.7-0.7
					c0.5-0.4,1.2-0.6,1.8-0.9c0.4-0.2,0.7-0.2,0.9-0.6c0.2-0.5,0.2-1,0.6-1.4c0.4-0.5,0.9-0.4,1.4-0.5c0.9-0.2,1.7-0.9,2.6-1.2
					C427.5,399.3,426.2,399.8,425.6,400z"/>
				<path id="XMLID_716_" class="st4" d="M481.1,409.2c0-0.7-0.9-1.2-1.5-1.5c-0.9-0.4-1.8-0.8-2.7-1.3c-0.3-0.2-0.6-0.5-1-0.6
					c-0.3-0.1-0.6,0.1-1,0.1c-0.4,0-0.7-0.1-1.1-0.1c-0.4,0-0.7,0.1-1.1,0.1c0.5-0.1,1.1,0.2,1.4,0.7c0.2,0.3,0.2,0.6,0.4,0.8
					c0.2,0.2,0.7,0.1,0.9,0.3c0.6,0.5,0.6,0.9,1.4,1.1c1.1,0.3,2.2,0.2,3.2,0.5c0.4,0.1,0.8,0.4,1.2,0.6c0.3,0.1,0.9,0,1.2,0
					c0.6,0.1,1.1,0.2,1.7,0.4c0.7,0.3,1,0.4,1.8,0.3c0.3,0,0.4-0.1,0.7,0.1c0.2,0.2,0.3,0.7,0.7,0.6c0.4-1.2-2.6-2-3.4-2.1
					C483.6,409.2,482.3,409.3,481.1,409.2z"/>
				<path id="XMLID_720_" class="st4" d="M524.8,411.4c-0.8-0.2-1.7-0.5-2.5-0.5c-0.4,0-0.6,0-1-0.1c-0.3-0.1-0.8-0.2-1.1-0.2
					c-0.3,0-0.6,0.1-1,0.1c-0.6-0.1-1.2-0.2-1.8,0c-0.5,0.1-1.4,0.8-1.3,1.4c1.1,0.1,2-0.2,3,0.5c0.5,0.4,0.9,0.8,1.3,1.1
					c0.5,0.5,1.2,0.9,1.6,1.5c0.4,0.7,0.7,1.4,1.5,1.6c0.1-0.4,0.5-1.2,1-1.3c0.3-0.1,0.8,0.1,1.1,0.3c0.5,0.3,0.8,0.7,1.5,0.8
					c0.3,0,0.6-0.1,1-0.1c0.3,0,0.7,0.2,0.9,0.3c0.9,0.3,1.8,0.4,2.8,0.5c0.5,0.1,1,0.1,1.4,0.3c0.4,0.2,0.9,0.5,1.4,0.5
					c0.4,0.1,0.7,0,1.1,0.1c0.2,0.1,0.5,0.2,0.7,0.3c0.6,0.1,1.5,0.4,2.1,0.2c0.1-0.7-0.2-1.5-1-1.6c-0.3,0-0.6,0.1-0.9,0.1
					c-0.4,0-0.7-0.2-1.1-0.4c-1.1-0.5-2.4-0.5-3.5-1.1c-0.6-0.3-1.2-0.5-1.7-0.8c-0.2-0.1-0.5-0.3-0.7-0.5c-0.2-0.3-0.2-0.6-0.5-0.9
					c-0.3-0.2-0.8-0.4-1.1-0.5c-0.3-0.2-0.7-0.3-1-0.5C526.5,412.4,526.2,412.2,524.8,411.4z"/>
				<path id="XMLID_724_" class="st4" d="M567.1,393.9c-0.4,0-0.7-0.1-1.2-0.1c-0.4,0.1-0.9,0.2-1.4,0.2c-0.2,0-0.7-0.2-0.9-0.1
					c-0.2,0.1-0.3,0.3-0.4,0.5c-0.8,1.1-1.7,2.1-2.8,2.9c-0.8,0.6-1.5,1.5-2.4,2c-0.6,0.4-1.2,0.6-1.8,1c-1.1,0.7-2.3,1.2-3.3,1.9
					c-0.8,0.6-1.5,1.5-2,2.3c0.3,0.1,0.7-0.2,0.9-0.3c0.8-0.3,1.6-0.6,2.3-1c1.2-0.6,2.2-1.5,3.4-2c0.6-0.2,1.1-0.2,1.6-0.5
					c1.3-0.8,2.6-2,4.1-2.2c0.4-0.1,0.7-0.1,1.1,0c0.2,0.1,0.3,0.2,0.6,0.2c0.4,0,1-0.5,1.3-0.8c0.6-0.5,1.2-0.9,1.9-1.3
					c0.9-0.5,1.9-1,2.9-1.5c0.3-0.2,0.9-0.2,0.9-0.6c-0.6-0.2-1.7,0.2-2.2,0.4c-0.9,0.4-1.8,0.8-2.8,1.1c-0.7,0.3-1.5,0.3-2.3,0.6
					c-0.6,0.2-1.1,0.3-1.7,0.4c1,0,1.6-0.9,2.4-1.4c0.5-0.3,1.1-0.4,1.7-0.6c0.3-0.1,0.6-0.3,0.9-0.5c0.4-0.3,0.9-0.4,1.3-0.6
					c0.3-0.2,0.5-0.4,0.8-0.5c0.2-0.1,0.5-0.2,0.7-0.4c-0.3,0-0.7-0.1-1-0.1c-0.4,0-0.5,0.1-0.8,0.2c-0.4,0.1-0.9,0-1.1,0.4
					C567.9,393.7,568,393.7,567.1,393.9z"/>
				<path id="XMLID_726_" class="st4" d="M648.8,394.8c-0.9,0-2-0.9-2.9-0.7c-0.4,0.1-0.5,0.3-0.3,0.7c0.1,0.2,0.5,0.6,0.8,0.7
					c0.1,0,0.4,0,0.5,0c1,0.5-0.3,1.7-0.3,2.3c0,0.3,0,0.7,0.3,0.8c0.2,0.1,1.1-0.2,1.3-0.2c0.2,0,0.4,0,0.7,0c0.4,0,1,0,1.3,0.3
					c0.3,0.3,0.4,0.8-0.1,1c-0.8,0.5-1.9,0.1-2.8,0.3c-1.7,0.4-3.4,0.8-5.1,1.2c-1.3,0.3-2.7,0.5-3.9,0.9c-0.9,0.3-1.4,0.8-2.2,1.3
					c-0.9,0.6-1.7,1-2.8,1.2c-1.2,0.2-2,0.2-3,0.9c-0.4,0.3-2.2,1.1-2.1,1.6c2.5-0.3,4.8-1.6,7.2-2.4c1.8-0.6,3.7-1.3,5.5-1.9
					c0.8-0.2,1.5-0.6,2.3-0.7c0.7-0.2,0.8-0.4,1.5-0.1c1.8,0.6,4-0.2,5.8-0.5c0.9-0.2,1-0.2,1.7-0.1c0.7,0.1,1.2,0.1,1.9,0
					c0.3,0,1.9-0.1,2.1-0.5c0.3-0.7-1.7-1.8-2.2-2c-0.6-0.3-1.4-0.3-1.3-1.1c0-0.3,0.2-0.5,0.1-0.9c-0.1-0.5-0.2-0.4-0.7-0.7
					C651.4,395.9,650.3,395.3,648.8,394.8z"/>
				<path id="XMLID_737_" class="st4" d="M661,396.8c-0.7,0.1-1.4,0.2-2.1,0.3c-0.6,0.1-1,0.3-1.6,0.4c-0.4,0.1-0.9,0.3-0.6,0.8
					c0.3,0.7,1,0.3,1.5,0.4c0.2,0.4,0,0.8,0.2,1.2c0.6,0,1.6-0.1,1.2,0.7c-0.3,0.5-0.9,1-1.4,1.2c0.8,0.2,1.6,0,2.4-0.1
					c1.1-0.1,2.2-0.3,3.3-0.4c0.4,0,3-0.7,3.3-0.1c-0.3,0.5-1.5,0.3-2.1,0.4c-0.8,0.3-1.6,0.9-2.4,1.2c-0.5,0.2-1.2,0.4-1.7,0.7
					c-0.8,0.3-1.6,0.7-2.4,1.1c-0.6,0.3-1.4,0.5-1.6,1.2c0.5,1,5.5-1.8,6.7-2.1c1.7-0.5,3.5-0.8,5.3-1c0.4,0,0.8-0.1,1.2-0.1
					c0.7-0.1,1.3-0.4,1.9-0.5c0.4,0,0.9,0.1,1.3,0.1c0.4,0,0.8-0.1,1.3-0.1c-0.7-0.1-1.5-0.8-2.2-1.1c-1.5-0.6-3-0.3-4.5-0.4
					c-0.8-0.1-1.6-0.3-1.9-1c-0.2-0.4-0.5-0.5-0.8-0.7c-0.6-0.5-1.2-0.8-1.9-1.2c-0.6-0.3-0.9-0.3-1.5-0.4
					C661.6,397.1,661.1,396.7,661,396.8z"/>
				<path id="XMLID_738_" class="st4" d="M672.7,415.4c0.4,0.1,0.9-0.4,1.1-0.7c0.5-0.4,0.9-0.7,1.4-1.1c1.1-1,2.3-2,3.3-3.2
					c0.6-0.6,1-1.3,1.6-1.9c0.6-0.7,1.5-1.4,2.2-2.1c0.5-0.4,1.1-0.7,1.5-1.1c0.6-0.6,1.1-1.2,1.6-1.8c0.5-0.5,1-0.9,1.5-1.4
					c0.5-0.5,1.3-1.2,2-1.3c0.7-0.1,0.7,0,0.8,0.6c0.1,0.6,0.3,0.7,0.9,0.7c0.1,0.2,0.1,0.5,0.1,0.8c0.5,0.1,1.2-0.1,1.7-0.2
					c0.5-0.1,1-0.1,1.4-0.2c0.4-0.1,0.9-0.2,1.3-0.2c0.5,0,0.9,0.3,1.4,0.3c-1.7,0.8-3.2,1.7-4.8,2.7c-0.6,0.4-1.2,0.5-1.8,0.8
					c-0.7,0.4-0.8,1-1.2,1.6c-0.7,1.1-1.7,1.8-3,2.2c-0.9,0.3-1.6-0.2-2.6,0.2c-1.8,1-3,3-4.8,3.9c-0.4,0.2-0.7,0.3-1,0.6
					c-0.7,0.5-1.4,0.7-2.2,1c-0.9,0.4-1.8,0.5-2.6,1.1c-0.4,0.3-0.6,0.5-1.1,0.7c-0.5,0.2-0.9,0.7-1.5,0.8c0.5-0.3,0.7-1,1-1.4
					c0.5-0.5,1.1-1,1.7-1.3C672.8,415.6,672.7,415.6,672.7,415.4z"/>
				<path id="XMLID_739_" class="st4" d="M665.9,418.8c-1,0-1.7,0.8-2.6,1.2c-0.6,0.3-1.2,0.5-1.9,0.8c-0.4,0.1-0.9,0.3-1.3,0.4
					c-0.3,0.1-0.6,0.3-0.9,0.4c-0.3,0.1-0.6,0.1-0.9,0c-0.3-0.1-0.5-0.4-0.9-0.2c-0.4,0.2-0.9,0.7-1.3,1c-0.6,0.5-1.2,0.8-1.8,1.2
					c-0.7,0.4-1.4,0.7-2,1.1c-0.5,0.3-0.8,0.6-1.4,0.8c-1,0.4-1.8,1.1-2.7,1.7c-0.9,0.6-2.9,1.3-3.4,2.4c0.3,0.1,0.6,0,0.9-0.1
					c0.8-0.2,1.5-0.5,2.3-0.8c1.6-0.8,3.3-1.5,5-2c0.5-0.2,1.1-0.4,1.6-0.6c0.3-0.1,1-0.6,1.4-0.6c0.5,0,0.3,0.2,0.6,0.2
					c0.7,0.1,1.1-0.1,1.6-0.6c0.8-0.7,1.5-1.4,2.4-2c0.6-0.4,1.3-0.8,1.9-1.1c0.6-0.4,1.2-0.8,1.7-1.3
					C664.8,420,665.4,419.6,665.9,418.8z"/>
				<path id="XMLID_745_" class="st4" d="M742.6,407.8c-0.1,0-0.1-0.1-0.2-0.1c-0.2,0.1-0.2,0.4-0.3,0.6c-0.1,0.6-0.2,1-0.5,1.6
					c-0.5,1-0.5,2.2-1.2,3.1c-0.9,1.2-3.3,2.2-2.6,4.1c1.4,0.2,2.7-1.1,4.1-0.9c0.3,0.6-0.2,1.1-0.2,1.7c0,0.5,0.4,1,0.2,1.5
					c-0.1,0.3-0.4,0.5-0.4,0.8c0,0.7,0.7,1.1,1.2,1.4c0.9,0.7,1.4,1.6,1.9,2.6c0.4,0.7,0.6,1.5,1.2,2.1c0.3,0.3,0.2,0.2,0.6,0.2
					c0.8,0,1.8-0.2,2.6-0.3c1-0.1,2-0.2,3-0.5c0.6-0.2,1.1-0.1,1.7,0.1c2.1,0.6,4.5,1.4,5.9,3.1c0.4,0.5,0.6,1.1,1.3,1.2
					c0.5,0.1,1-0.3,1.5-0.4c0.9-0.2,1.4,0.4,2.2,0.7c0.4,0.2,0.7,0.1,1.1,0.2c0.6,0.1,1.2,0.4,1.9,0.6c1.1,0.3,2.2,0.6,3.3,0.7
					c1.2,0.2,2.5-0.1,3.7,0.4c0.5,0.2,0.9,0.4,1.4,0.6c0.6,0.3,1.4,0.8,1.8,0.1c0.4-0.6-0.3-1.6-0.7-2c-0.8-0.7-1.9-1.1-2.8-1.5
					c-0.9-0.4-1.9-0.8-2.8-1.3c-2.2-1.2-4.2-2.9-6.3-4.3c-1.5-1-2.7-2-4.4-2.7c-1.2-0.5-2.6-1.2-3.9-1.3c-1.2-0.1-2.6-0.1-3.7-0.6
					c-1-0.5-1.6-1.6-2.4-2.4c-0.8-0.9-1.4-1.4-1.6-2.7c-0.1-0.7-0.7-1.1-1.2-1.6c-0.9-0.7-1.3-1.1-1.9-2.2c-0.3-0.6-0.6-0.9-1-1.4
					C744.8,408.1,744,407.7,742.6,407.8z"/>
				<g id="XMLID_748_">
					<g id="XMLID_657_">
						<g id="XMLID_680_">
							<path id="XMLID_681_" class="st4" d="M576.1,386.8c0.4,0.1,0.7-0.1,1.1,0c0.5,0.1,1,0.3,1.6,0.4c0.4,0.1,0.7,0.2,1,0.5
								c0.3,0.3,0.2,0.6,0.3,1c0.1,0.4,0.3,0.5,0.3,0.9c0.1,0.4-0.3,1-0.8,1c-0.3,0-0.5-0.8-0.7-1.1c-0.2-0.3-0.5-0.6-0.8-0.7
								c-0.4-0.1-0.9,0.2-1.3,0.4c-0.6,0.3-0.3,0.7-0.3,1.3c0,0.5-0.2,1.1-0.5,1.4c-0.3,0.3-0.7,0.5-0.9,0.9c-0.2,0.4-0.3,1-0.5,1.5
								c-0.1,0.3-0.7,1-0.6,1.3c0.5,0.1,1-0.2,1.5-0.4c1-0.5,1.9-1.1,2.9-1.5c1.1-0.5,1.9-1.1,2.9-1.7c0.7-0.4,1.4-0.4,2.1-0.7
								c0.5-0.2,1-0.6,1.5-0.9c0.5-0.3,1.1-0.6,1.4-1c0.3-0.3,0.4-0.7,0.7-0.9c0.4-0.2,0.8-0.2,1-0.6c0.2-0.3,0.1-0.6,0.3-0.9
								c0.2-0.3,0.6-0.5,0.9-0.7c-1.1,0.1-2.5-0.5-3.4-0.9c-2.4-1-5.9-2.2-8.5-1.5c-1.2,0.3-2,0.9-2.9,1.5c0.3,0.1,0.5,0.2,0.7,0.4
								C575.5,386.2,575.7,386.7,576.1,386.8z"/>
						</g>
						<g id="XMLID_678_">
							<path id="XMLID_679_" class="st4" d="M594.2,382.8c0,0.3,0,0.5-0.1,0.8c0.3,0.1,0.6,0,0.9-0.1c0.3,0,0.7-0.2,1-0.3
								c0.4-0.1,0.3-0.1,0.5,0.3c0,0.2,0,0.4,0.1,0.6c0.1,0.5,0.2,1.1,0,1.5c-0.1,0.3-0.3,0.6-0.4,0.9c0,0.1-0.1,0.3-0.2,0.4
								c-0.3,0.5-0.8,0.9-1.3,1.3c-0.7,0.5-1,1-1.5,1.6c-0.6,0.9-1,2-1.8,2.7c-0.5,0.4-1.1,0.9-1.6,1.3c-0.6,0.5-1.2,0.7-1.8,1.1
								c-1.1,0.6-2.1,1.4-3.3,2c-1.4,0.7-2.8,1.7-4.3,2.2c-3.2,1.1-6.2,2.6-9.4,3.8c-0.4,0.2-0.7,0.2-1,0.6c-0.3,0.4-0.5,1-0.9,1.4
								c-0.8,0.9-2.1,1.6-3.1,2.2c-0.7,0.5-1.3,1-2,1.6c-0.6,0.5-1.1,1-1.7,1.6c-0.5,0.5-0.8,0.5-1.4,0.7c0.1,0.4-0.5,0.9-0.7,1.2
								c-0.4,0.5-0.9,0.9-1.3,1.5c-0.1,0.2-0.5,0.6-0.4,0.9c0.4,0.1,1-0.3,1.4-0.6c1.2-0.8,2.1-1.9,3.1-2.9c0.6-0.6,1.2-1.2,2-1.4
								c0.6-0.2,1.2-0.1,1.8-0.3c0.9-0.2,1.6-0.8,2.4-1.2c0.9-0.4,1.7-0.9,2.6-1.3c0.5-0.2,1-0.5,1.5-0.8c0.3-0.2,0.6-0.5,0.9-0.6
								c0.4-0.1,0.4-0.2,0.7,0.2c0.1,0.2,0.3,0.4,0.4,0.6c0-0.1,0.1,0.5,0.1,0.5c0.4,0.2,0.7-0.5,0.9-0.7c0.7-0.9,2-1.5,3.1-1.7
								c0.4-0.1,0.7-0.1,1.1,0.1c0.1,0.1,0.3,0.3,0.4,0.3c0.3,0.1,0.6-0.1,0.9-0.1c1-0.1,1.4,0.1,1.4,1.2c0,0.3-0.2,1,0,1.2
								c0.1,0.2,0.3,0.1,0.4,0.3c0.3,0.5-0.1,1.8,1,1.4c0.5-0.2,0.7-0.8,1-1.2c0.5-0.6,0.9-1.2,1.4-1.9c0.4-0.5,0.9-1,1.2-1.6
								c0.4-0.6,0.6-1.4,0.9-2c0.2-0.5,0.7-0.8,1.2-0.8c0.6,0.1,0.6,0.8,1.1,0.9c1.3,0.4,0.9-2.3,1.7-2.7c0.2-0.1,0.3,0,0.5-0.1
								c0.4-0.1,0.8-0.2,1.2-0.4c1-0.5,2.1-1,2.6-2c0.7-1.3,0.1-2.4-0.1-3.7c-0.2-0.8-0.9-2.5-0.5-3.3c0.3-0.5,0.9-0.9,1.3-1.4
								c0.6-0.6,1-1.3,1.4-2c0.3-0.6,0.8-1.4,0.4-2c-0.3-0.5-0.9-0.9-1.2-1.4c-0.3-0.5-0.5-1.1-0.6-1.7c-0.1-0.4-0.2-0.8,0.1-1.1
								c0.3-0.4,1.1-1,1.5-1.3c0,0,0.1-0.1,0.1-0.1c-0.8-0.2-1.6-0.3-2.3-0.3c-0.5,0-1.2,0.1-1.7,0.3c-1.2,0.6-1.1,1.9-1.9,2.6
								c-0.1,0-0.1,0.1-0.2,0.1c0.1,0.1,0.1,0.1,0.1,0.2C594.2,382.4,594.2,382.6,594.2,382.8z"/>
						</g>
						<g id="XMLID_676_">
							<path id="XMLID_677_" class="st4" d="M704,389.7c-0.1,0.6-0.9,1.3-1.4,1.7c-0.5,0.4-1.1,0.8-1.6,1.1
								c-0.6,0.4-1.3,0.8-1.9,1.2c-0.7,0.5-1.6,1.2-2.5,1.4c0.6-0.2,1.3,0,2,0c1-0.1,1.9-0.5,2.9-0.6c0.6-0.1,0.6,0,0.7,0.4
								c0.2,0.5,0.5,0.7,1.1,0.8c0.9,0.1,2.3-0.7,2,0.8c-0.1,0.4-0.3,0.7-0.2,1.1c0,0.3,0.1,0.6,0.1,0.9c0,0.3,0,0.6,0.3,0.7
								c0.3,0.1,1-0.2,1.4-0.2c0.6,0,1.1,0.2,1.7,0.2c0.9,0,1.8,0.1,2.7,0.2c0.7,0.1,1.5,0.1,2.2,0.3c0.4,0.1,0.8,0.3,1.2,0.3
								c0.5,0,0.8-0.3,0.9-0.8c0.1-0.8-0.4-1-1-1.4c0.5-0.7,1.7-0.3,2.2-1.2c0.2-0.3,0.2,0,0.1-0.5c-0.1-0.3-0.5-0.8-0.8-1.1
								c-0.4-0.1-0.8-0.2-1.1-0.4c-3.5-1.6-5.8-5.9-9.9-6.3c-0.4,0-0.7,0-1.1,0c0,0,0,0,0,0C703.8,389,704,389.4,704,389.7z"/>
						</g>
						<g id="XMLID_674_">
							<path id="XMLID_675_" class="st4" d="M810.6,378.5c0.9,0,2.4,0.4,3.1,0.9c0.9,0.7,1,2,1.7,2.8c0.3,0.4,0.9,0.7,1.3,1
								c0.7,0.5,1.3,1,1.9,1.7c0.6,0.7,0.8,1.6,1.4,2.3c0.6,0.8,1.6,1.2,2.4,1.7c1,0.6,1.9,1.4,3.1,1.7c1.1,0.3,2.3-0.2,3.3-0.5
								c1.1-0.4,2.5-0.5,3.7-0.6c1,0,1.6,0.3,2.5,0.7c0.4,0.2,0.7,0.4,1.1,0.7c0.7,0.5,1.6,0.6,2.4,1.1c0.8,0.5,1.5,0.9,2.5,1.1
								c0.5,0.1,1,0.1,1.4,0.2c1,0.2,2.1,0.2,3.1,0.3c0.5,0.1,1.9,0.1,2.3,0.5c-0.4,1.4-1.8,2.5-2.6,3.6c-0.2,0.3-0.5,0.6-0.3,0.8
								c0.1,0.3,1.5,0.5,1.8,0.6c0.9,0.2,1.7-0.2,2.6-0.1c1,0.1,2.2,0.3,3.1,0.7c1,0.4,1.9,0.8,2.9,0.9c1.2,0.2,2.5-0.1,3.7,0.3
								c1,0.4,1.7,1.2,2.6,1.6c1,0.5,2.1,0.5,3.2,0.4c2.3-0.2,4.6-0.8,6.9-1.1c1.6-0.2,3.1-0.2,4.6,0c-1.6-0.6-3.1-1.4-4.6-2.2
								c-2.7-1.5-5.1-3.6-8-4.7c-2.3-0.9-4.8-1.7-7.1-2.9c-2.5-1.3-4.1-2.4-7-2c-1.9,0.2-3.3,0.6-5.2,0c-1.1-0.3-2.1-0.7-3.2-0.8
								c-3.4-0.3-7.7-2-10.2-4.5c-1.4-1.3-2.7-2.7-4.3-3.8c-1.1-0.7-2-1.3-2.8-2.3c-1-1.1-2.1-1.8-3.5-2.6c-1.2-0.6-3.4-2.1-4.7-2.2
								c-1.1-0.1-2.1,0.9-3.1,1.1c-1.1,0.3-2.5,0.3-3.7,0.4c-0.7,0.1-1.6,0.1-2.3,0.3c-0.1,0-0.1,0.1-0.2,0.1
								c0.4,0.3,0.7,0.6,1.1,0.9C808.3,377.8,809.1,378.6,810.6,378.5z"/>
						</g>
						<g id="XMLID_672_">
							<path id="XMLID_673_" class="st4" d="M754.4,397.2c1,0.1,2.1-0.2,3.1-0.3c0.7-0.1,1.2,0.2,1.9,0.4c0.8,0.2,1.7,0.4,2.6,0.5
								c0.7,0.1,1.2,0.1,1.7,0.6c0.3,0.3,0.4,0.7,0.7,1.1c0.6,0.8,2.3,0.5,2.8-0.4c0.4-0.7,0.4-1.3,0.3-2c-0.1-0.7-0.1-0.9,0.4-1.5
								c0.6-0.7,1.1-1.3,1.6-2c0.1-0.2,0.2-0.4,0.4-0.6c-2.5,0.3-5.1-0.5-7.7-0.3c-2.7,0.2-5.6,1.8-8.3,3.4c0,0.1,0,0.2,0.1,0.4
								C753.9,397.1,753.9,397.1,754.4,397.2z"/>
						</g>
						<g id="XMLID_670_">
							<path id="XMLID_671_" class="st4" d="M729.3,393.9c0.2,0.3,0.7,0.5,0.9,0.8c0.1,0.2,0.2,0.4,0.4,0.6c0.3,0.5,0.5,0.7,0.5,1.3
								c0.1,0.5,0.2,0.9-0.1,1.4c-0.3,0.5-0.3,0.7-0.2,1.3c0.1,0.9,0.4,1.6,1.3,1.8c1,0.2,2.1,0,3.1,0.5c0.5,0.2,0.9,0.6,1.4,0.8
								c0.6,0.3,1.2,0.5,1.8,0.8c0.8,0.4,1.6,0.8,2.5,1.2c0.5,0.2,1.5,0.7,2,0.4c-0.4-1-0.9-1.9-1.4-2.8c-0.2-0.3-0.6-0.8-0.6-1.1
								c0.1-0.9,1.9-0.8,2.4-1.1c0.1-0.9-0.6-1.5-1.2-2c-0.2-0.1-0.3-0.2-0.5-0.4c-0.2-0.1-0.4-0.1-0.6-0.2c-2-0.9-4.1-1.8-5.9-3
								c-1.5-0.9-2.9-1.8-4.5-2.1C730.2,392.6,728.8,392.8,729.3,393.9z"/>
						</g>
						<g id="XMLID_668_">
							<path id="XMLID_669_" class="st4" d="M616.5,373.9c0.5,0.2,0.5,0.5,0.8,0.8c1.3,1.5,3.8-0.2,5.4,0.5c0.8,0.4,1.8,0.7,2.4,1.2
								c0.7,0.6,0.8,1.3,1.9,1.3c0.7,0,1.3-0.2,2-0.1c0.6,0.1,1,0.2,1.6,0.4c0.4,0.2,0.7,0.2,1,0.6c0.2,0.3,0.9,0.8,0.7,1.2
								c-0.3,0.1-0.6,0.1-0.9,0.2c-0.4,0.1-0.7,0.4-1.2,0.5c-0.4,0.1-0.7,0.3-1.1,0.3c-0.3,0-0.6-0.2-0.9-0.3
								c-0.3,0-0.5,0.1-0.8,0.2c-0.4,0.2-0.8,0.2-1.3,0.3c-0.6,0.1-1,0.4-1.5,0.7c-0.3,0.2-0.7,0.2-1,0.5c0,0.4,0.5,0.5,0.8,0.6
								c0.9,0.2,1.8,0,2.7,0.2c0.9,0.3,1.5,1,2.1,1.6c0.8,0.8,1.2,1.8,1.9,2.6c0.3,0.4,0.7,0.8,1.2,1c0.3,0.1,0.5,0.2,0.8,0.3
								c0.2,0.2,0.4,0.3,0.6,0.5c0.4,0.3,1.3,1,1.8,1.1c1.1,0.2,2-0.8,2.9-1.2c1-0.4,1.6,0,2.4,0.5c0.3,0.1,0.4,0.3,0.7,0.3
								c0.3-0.1,0.5-0.1,0.8-0.1c0.1,0.1,0.3,0.1,0.4,0.1c0-0.2,0-0.4,0-0.6c1-0.4,2.1-0.2,3.1-0.1c0.2,0,0.5,0,0.7,0
								c0.5,0.1,1,0.4,1.4,0.7c0.6,0.4,0.9,0.5,1.6,0.6c0.5,0.1,0.6,0.1,1,0.4c0.5,0.4,0.8,1,1.4,1.4c0.6,0.4,1.2,0.6,1.8,0.8
								c1.4,0.6,2.8,1.3,4.3,1.7c1.3,0.4,2.9,0.7,4.3,0.8c1.3,0.1,2.5,0.7,3.8,0.8c1.2,0.1,2.4,0,3.5,0.2c0.4,0,1,0.1,1.3,0.3
								c0.3,0.2,0.3,0.5,0.4,0.8c0.2,0.8,0.2,1.2,1.1,1.4c0.7,0.1,1.6,0,2.2,0.3c0.4,0.1,0.2,0.1,0.5,0.4c0.3,0.3,1.1,0.6,1.5,0.6
								c0.7,0.1,0.5-0.4,0.2-0.8c-0.3-0.5-0.7-1-1.3-1.2c-0.6-0.2-0.7,0-1.1-0.4c-0.3-0.3-0.5-0.7-0.8-1.1c-0.1-0.2-0.3-0.2-0.3-0.5
								c0.3-0.1,0.6,0,0.9,0.1c0.6,0,1.1,0.1,1.7,0.1c0.5,0.1,0.7,0.4,1.1,0.5c0.5,0.2,1.1-0.1,1.6,0c0.7,0.1,1,0.3,1.6,0.1
								c-0.2,0-0.4,0-0.5,0c-0.9-0.3-1.4-1.2-2.2-1.6c-0.7-0.4-1.6-0.6-2.4-0.9c-2.1-0.9-3.6-1.4-5.8-1.7c-1.7-0.2-3.2-0.7-4.8-1
								c-1.3-0.2-2.6-0.1-3.8-0.6c-1.6-0.6-4-2.4-4.9-3.8c-1.4-2-2.3-2.6-4.2-3.9c-2.7-1.9-4.5-5.1-7.3-6.7
								c-2.1-1.2-4.3-0.9-6.6-0.2c-1.4,0.4-2.4,1-3.8,0.5c-1.1-0.4-2.1-1.2-3.2-1.6c-3-1.2-6.3-3.7-9.6-3.8
								c-1.7-0.1-3.9,0.3-5.5,0.7c-1.2,0.3-2.1,0.9-3.1,1.5c0.8,0,1.5,0,2.3-0.1C615.5,373.9,616,373.7,616.5,373.9z"/>
						</g>
						<g id="XMLID_666_">
							<path id="XMLID_667_" class="st4" d="M438.1,401.6c-0.3,0.2-0.5,0.4-0.9,0.4c-0.3,0.1-0.6,0-0.9,0.1c-0.4,0.1-0.6,0.3-1,0.4
								c-0.3,0.1-0.6,0.1-1,0.1c-0.6,0.1-1.3,0.1-1.9,0.3c-0.7,0.3-1.2,0.6-1.7,1.2c-0.2,0.3-0.6,0.4-0.9,0.6
								c-0.1,0.1-0.5,0.4-0.6,0.5c0.7,0.2,1.6-0.6,2.3-0.8c0.6-0.2,1.2-0.3,1.8-0.5c0.3-0.1,0.4-0.4,0.7-0.1c0,0,0.2,0.5,0.2,0.5
								c0.2,0.4,0.1,1,0.2,1.4c0.4,1.1,2-0.6,2.4-0.9c0.3-0.3,0.7-0.5,1.1-0.6c0.5-0.2,0.5-0.2,1-0.1c0.3,0,0.6,0,0.9-0.1
								c0.4-0.1,1-0.5,1.4-0.6c0.4,0,1,0.8,1.4,1.1c0.6,0.5,1.3,0.6,2,0.8c0.7,0.3,1.3,0.9,1.9,1.2c0.3,0.2,0.7,0.2,1.1,0.4
								c0.4,0.2,0.5,0.5,0.8,0.9c0.3,0.4,0.7,0.6,0.9,1.1c0.3,0.4,0.3,0.8,0.5,1.3c0.3,0.7,0.9,1.1,1.1,1.9c0.1,0.4,0.2,0.8,0.5,1.1
								c0.3,0.3,0.6,0.4,1,0.5c1.3,0.5,2.1,1.5,3.1,2.3c0.4,0.3,0.9,0.5,1.3,0.7c0.3,0.2,0.6,0.5,0.9,0.3c0.3-0.2,0.3-1,0.3-1.3
								c0-0.3-0.1-0.7-0.2-0.9c-0.1-0.2-0.3-0.3-0.4-0.5c-0.2-0.3,0-0.6,0.1-1c0.1-0.5,0.2-0.8,0-1.3c-0.2-0.4-0.2-0.8-0.3-1.2
								c-0.1-0.5-0.6-0.9-0.8-1.3c-0.4-0.7-0.8-1.4-1.2-2.2c-0.2-0.4-0.2-0.7-0.3-1.1c0.5,0.3,0.9,0.7,1.2,1.2
								c0.6,0.7,1.3,1.2,1.9,1.8c0.2,0.2,0.6,0.7,0.9,0.7c0.3,0,0.6-0.6,0.8-0.8c0.2-0.2,0.5-0.4,0.7-0.6c-0.3-0.3-0.8-0.5-1.1-0.9
								c-0.3-0.3-0.5-0.6-0.8-0.9c-0.2-0.2-0.5-0.3-0.6-0.5c-0.1-0.2-0.1-0.3-0.2-0.5c-0.1-0.3-0.3-0.4-0.5-0.6
								c-0.3-0.3-0.9-0.6-1-0.9c0.4-0.3,1.3-0.7,1.8-0.6c0.2,0.6,0,1,0.8,1.2c0.9,0.2,1.7-0.3,2.4,0.3c0.5,0.4,1,0.8,1.7,1
								c0.4,0.1,1.6,0.3,2.1,0.1c0.1-0.4,0-1.2-0.2-1.6c-0.3-0.6-1.6-0.5-2.3-0.8c-0.4-0.2-1.1-0.6-1.3-1.1c-0.2-0.3-0.2-0.2,0-0.6
								c0.3-0.5,1.1-0.8,1.5-1.2c0.5-0.5,0.5-1.3,0.8-1.8c0.2-0.3,0.4-0.5,0.6-0.7c-1.2,0.5-2.3,1.2-3.7,1.4c-1,0.2-2,0.2-3,0.3
								c-2.2,0.3-3.9,0.5-5.9,0.2c-1.7-0.2-2.7,0.4-4.2,0.9c-1.6,0.5-2.4,0.1-4,0c-1.3-0.1-2.4,0.2-3.7,0c0,0-0.1,0-0.1,0
								C439,401.3,438.5,401.4,438.1,401.6z"/>
						</g>
						<g id="XMLID_664_">
							<path id="XMLID_665_" class="st4" d="M380.9,401.2c0.7-0.1,1.2-0.1,1.8-0.5c0.6-0.3,1.9-0.9,2.7-0.7c0.2,0.1,0.3,0.2,0.5,0.3
								c0.2,0.1,0.5,0,0.7,0.2c0.3,0.2,0,0.4,0.2,0.6c0.1,0.2,0.5,0.3,0.7,0.3c0.6,0.1,1.9-0.1,2.4,0.4c0.1,0.1,0.1,0.3,0.3,0.5
								c0.2,0.2,0.7,0.4,0.9,0.6c0.4,0.2,0.4,0.2,0.5,0.6c0,0.3,0.1,0.5,0,0.7c-0.1,0.2-0.3,0.5-0.3,0.8c0,0.4,0.6,0.9,0.9,1
								c0.8,0.3,1.8,0.1,2.7,0.1c0.4,0,0.9,0.2,1.3,0.4c0.5,0.3,0.5,0.7,0.8,1.1c0.2,0.3,0.6,0.4,0.8,0.7c0.4,0.4,0.7,0.8,1.2,1.2
								c0.3,0.2,0.5,0.6,0.9,0.7c0.6,0.3,0.7,0,1.1-0.5c0.5-0.4,1-0.8,1.6-1.2c0.3-0.2,1.2-0.4,1.3-0.8c0.1-0.3-0.1-0.4,0-0.7
								c0.2-0.5,1.1-1,1.5-1.4c0.6-0.6,1-1,1.8-1.1c1.2-0.2,2.2-1.3,3.1-2.1c0.2-0.2,0.4-0.4,0.6-0.6c-0.7,0.2-1.4,0.4-2.2,0.6
								c-1.3,0.4-2.9,0.3-4.3,0.5c-1.5,0.2-1.8,0.1-3.1-0.4c-0.5-0.2-1.1-0.1-1.5-0.2c-0.6-0.3-0.7-0.6-1.4-1
								c-1.4-0.9-2.7-2-4.2-2.7c-1.6-0.7-5-1.7-6.6-1.1c-3.2,1.3-6.6,2.6-9.9,3.7C378.8,401.5,379.8,401.3,380.9,401.2z"/>
						</g>
						<g id="XMLID_662_">
							<path id="XMLID_663_" class="st4" d="M560.5,389c0,0.5,0.8,0.7,0.8,1.3c0,0.4-0.4,0.5-0.5,0.7c-0.1,0.2-0.2,0.7-0.3,1
								c0.8,0.6,2.3-0.4,3.1-0.6c0.6-0.1,1.2-0.2,1.8-0.1c0.4,0.1,0.7,0.2,1.1,0.2c1,0,1.7,0,2.7-0.3c0.2-0.1,0.6,0,0.8-0.1
								c0.3-0.2,0.2-0.4,0.3-0.7c0.2-0.8,0.8-1.2,1.2-1.8c0.3-0.4,0.2-0.2,0.1-0.7c0-0.4,0.2-0.7,0.4-1c-0.8,0.3-1.7,0.4-2.8,0
								c-3.3-1-5.5,0.7-8.6,1.6C560.6,388.7,560.5,388.8,560.5,389z"/>
						</g>
						<g id="XMLID_660_">
							<path id="XMLID_661_" class="st4" d="M504.6,402.7c0.3,0.1,0.5,0.2,0.7,0.4c0.6,0.4,0.7,0.7,0.4,1.4
								c-0.1,0.4-0.2,0.5,0.2,0.8c0.5,0.4,1.2,0.6,1.8,0.9c1.1,0.6,2.5,0.8,3.4,1.7c0.5,0.5,1,1,1.6,1.5c0.4,0.3,0.8,0.8,1.3,0.9
								c0.6,0.1,1.1-0.3,1.6-0.5c0.6-0.3,1.1-0.4,1.5-1c0.3-0.4,0.7-0.9,1.2-1.1c0.3-0.2,0.8-0.2,1.1-0.5c0.2-0.3,0.2-0.6,0.5-0.9
								c0.3-0.3,0.6-0.5,0.9-0.8c-1.7,0-3.4-0.4-5.2-1.3c-2-1-3.8-1.3-6-1.6c-1.5-0.2-3.1-1-4.6-0.9c-0.3,0-0.6,0.1-0.9,0.2
								c0,0.1,0,0.1,0,0.2C504.2,402.6,504.3,402.6,504.6,402.7z"/>
						</g>
						<g id="XMLID_658_">
							<path id="XMLID_659_" class="st4" d="M484.4,398.3c0.5,0.3,0.6,0.6,0.9,1.1c0.9,1.7,3.1,1.8,4.6,2.9c0.3,0.2,0.6,0.6,0.9,0.9
								c0.4,0.5,0,0.6-0.5,0.9c-0.4,0.3-0.4,0.5-0.9,0.5c-0.6,0-0.5-0.2-0.9-0.5c-0.3-0.4-0.7-0.3-1.2-0.3c-0.8,0.1-1.4,0.1-2.2-0.1
								c-0.9-0.3-2.5-1.1-3.5-0.6c0.1,0.2,0.4,0.3,0.7,0.4c0.3,0.2,0.6,0.5,1,0.7c0.6,0.4,1.4,0.5,2,1c0.4,0.3,0.6,0.7,1.1,0.9
								c0.3,0.2,0.7,0.3,1.1,0.4c0.7,0.2,1.4,0.3,2.1,0.6c0.8,0.4,1.8,0.7,2.4,1.4c0.4,0.6,1.1,0.8,1.6,1.2c0.7,0.6,1.1,1.3,1.5,2.1
								c0.2,0.4,0.2,1,0.5,1.2c0.4,0.4,1.4,0.5,1.9,0.5c1,0.1,2.2-0.5,3.2-0.3c0.4,0.1,0.8,0.4,1.2,0.5c0.5,0.2,1.1,0.3,1.6,0.4
								c1.3,0.2,2.5-0.3,3.7,0.2c1.4,0.6,2.5,1,4.1,1c2.2,0.1,4.4,0.1,6.7,0.2c-0.3-0.7-1.5-1-2.1-1.2c-0.6-0.2-1.2-0.3-1.8-0.6
								c-0.5-0.2-0.9-0.5-1.4-0.7c-0.7-0.2-1.6,0-2.4-0.1c-1.1-0.1-2.2-0.2-3.2-0.7c-0.6-0.3-1.6-0.4-2-0.8c-0.3-0.3-0.2-0.7-0.3-1
								c-0.2-0.8-1.2-1.5-1.9-2c-0.6-0.5-1.2-1-1.8-1.6c-0.2-0.3-0.4-0.5-0.6-0.8c0,0,0,0,0,0c-0.1,0.1-0.2,0.1-0.4,0.1
								c-0.2,0-0.8-0.8-1-0.9c-0.8-0.5-1.7-0.6-2.5-1c-0.8-0.4-1.4-1.2-2.2-1.7c-2.2-1.5-4.4-3.1-6.8-4.1c-1.1-0.4-2.3-1.3-3.5-1.5
								c-0.3,0-0.5,0-0.7,0c0.1,0.2,0.1,0.4,0.3,0.5C483.7,397.9,484,398,484.4,398.3z"/>
						</g>
					</g>
				</g>
				<path id="XMLID_710_" class="st4" d="M901.5,405.2c-3.4,0-6.3-1-9.6,0.2c-2.8,1.1-5,3.2-7.8,4.3c-5.2,2-11.1,2.8-16.9,3.5
					c-3.3,0.4-6.2,1.5-9.3,2.6c-1.6,0.5-3.1,1.3-4.7,1.9c-2,0.7-4,2.1-6,2.5c-3.3,0.6-6.6,1.9-9.7,3.2c-1.6,0.7-3.2,1.7-4.7,2.5
					c-0.7,0.4-2,1.5-2.8,1.5c2-0.3,4.1-0.5,6.1-0.8c2-0.2,5.1-1.3,7.1-0.4c0.6,0.3,0.7,1,1.3,1.2c0.6,0.2,1.3,0,1.9-0.1
					c2.8-0.3,5.5-0.7,8.3-1c1.8-0.2,3.7-0.8,5.4-0.4c1.6,0.4,2.5,0.7,4.3,0.5c1-0.1,2.8,0.1,2.4-1.2c-0.5-1.6-4.7-1-5.9-2
					c1.1-1.2,3.8-1.4,5.3-2.1c1.2-0.5,2.5-1.4,3.7-1.8c0.5-0.2,1.2-0.1,1.8-0.2c2.2-0.3,3.2-1.1,4.8-2.6c1.4-1.2,1.9-1.7,3.9-1.5
					c1.3,0.1,2.7,0.6,3.9,0c1.1-0.4,1-0.9,1.8-1.8c0.5-0.6,1.4-1.4,2-1.9c1.1-0.9,2.1-0.7,3.4-1.2c1.4-0.5,2.8-1.6,4.2-2.1
					c1.5-0.6,3.3-0.2,4.8-0.7C901.9,406.8,902.6,405.6,901.5,405.2z"/>
			</g>
			<path id="XMLID_421_" class="st5" d="M89.6,626.6c110.5,3.8,218.8,18.5,329.5,14.8c138.6-4.6,276.8-16.4,415.4-20.3
				c184.6-5.1,367.7-9.7,550.5-38.9c29.2-4.7,108.9-5.6,124.5-38.2c8.9-18.5,2.5-46.3,1.9-66.1c-1.4-44.3-0.7-89.8-8.9-133.5
				c-4.7-24.9-3.6-84.1-28.7-97.8c-19.2-10.5-57.5-2-75.1,8.2c-20.1,11.6-11.5,17.4-14.7,36.4c-2.8,16.6-8.8,14.6-22.8,15.7
				c-17.9,1.4-34.4,5.3-50.5,13.5c-10.8,5.5-26.7,24.6-37.8,25.6c-6.4,0.5-7.7-4.2-13.4-5.6c-29.1-7.6-38.4,8.5-60.6,24.2
				c-64.2,45.5-153.8,55.4-229.1,69.5c-48,9-96.2,19.9-145.4,21.4c-27.3,0.8-53.7-1.4-81.1,1.1c-15.7,1.4-30.9,2.7-46.2,0.4
				c-17.8-2.7-36.1-0.7-54-3.1c-7.1-1-43.1-5.5-46-9.6c-2.3-3.2,3.3-11,0.9-15.3c-4.5-8-20.1-6-27.8-5.2
				c-14.7,1.6-40.4,21.2-54.4,16.8c-6-1.9-6.8-9.2-13.6-13c-12.7-7.1-33.9-1.4-48.1-2.4c2.7-5.2,5.7-15.4,1.4-20.8
				c-11.6-14.5-23.2,3.7-13.1-22.4c24.8-64-59.7-59.1-99.9-42.4c-28.2,11.7-39.8,30.8-56.4,54.1c-6.9,9.7-16.2,20.2-27.1,12.3
				c-6.5-4.7-4.8-18.1-11.5-23.1c-6.1-4.5-20.2,1.6-24.7-2.7c-5.6-5.4,0.7-27.8-2.8-36.5c-10.3-25.9-33.8,1.6-46.3-13
				c-3.9-4.5,1-23.9,1.2-29c0.6-11.2,0.1-20-4.6-30.1c-10.6-22.8-38.2-31.9-61.2-36.3c-31.9-6-71.8,3.2-101,16.4
				C-7,258.8-56.4,284-55.9,304.1c0.3,13.9-3.2,38.7-4.2,52.8c-2.4,31.8,2.7,61.2,6.9,92.5c3.6,26.5,7,52.8,13.5,78.8
				c5.7,23.1,5.3,47.6,11.1,70.3c8,31.1,37.1,36.9,65.1,35.7C48.2,633.6,85.4,640.5,89.6,626.6z"/>
			<path id="XMLID_420_" class="st6" d="M1271.6,410.6c4.9-10.2,31.8-44.5,36.4-18.1c4.4-4.8,5.6-4.8,10.5-1.5
				c2.9-3.5,7.3-7,11.4-9.2c9-33.3,38.7-23.6,58.9-20.7c9.6,1.4,8.3-7.5,14.6,2c2.7,4-2.4,12.8,0.2,16.6c4,5.5,14.6,1.3,19.6,8.6
				c4.7,6.9-2.9,17.1-0.3,22.5c7.6,15.2,29.5,10.8,28.9,35.9c-0.2,6.5-6.1,37.3-11,41.8c-11.6,10.5-63.4,1.6-77.9,1.6
				c-27.5,0-55.1-0.9-82.5-0.1c-15.6,0.5-32.3,5.7-47.7,4.6c-1-20.8,15.4-43.2,28.4-58.4C1266.3,430,1272.6,426.1,1271.6,410.6z"/>
			<path id="XMLID_419_" class="st6" d="M814.1,464.6c-3.3-28.7-63-11.3-78.9-5.8c-1.3-11-12.9-7.7-21.7-7.8c2.6-19-23-7.5-31.4-5.6
				c0,0-12.5,4.3-12.6,4.3c-5,2.1-9.1,0.7-13.1,6.2c-12.6-12.9-48.7,5.4-64.4,6.8c-13.7,1.2-27.9,0.3-41.7,0.3
				c-11.3,0-20.6-0.8-31-2.9c-10.5-2.1-17-0.1-28.1-0.1c-8,0-17.2-5.3-25.1-0.4c0.2-17.2-23.8-10.5-29.7,0.2
				c-8.8-17.7-23.4-1.6-32.9,3.1c-4.8,2.4-10.9,1.7-15.9,1.9c-11.4,0.6-26,3.1-38.3,3.6c0.1-1.7-0.1-3.4-0.6-5
				c-6.2-1.3-12.3,0.2-17.7,3.7c8.7-17.7-15.6-13.3-24.3-6.8c-7.5-11.1-22-1.6-27.8,7.3c-6.5-15.6-13.9,2-15.7,10.6
				c-9-7.8-18.7,3.1-23.3,11.6c-3.9-9-11.9-5.9-18.1-0.8c-0.3-9-5.4-11.9-12-6.6c3.4-22.8-19.7-8.9-25.8,1.3
				c-5.9-22.9-28.3,3.7-30.3,15.3c-5.4-5.5-11.3-1.7-13.6,5.9c-4-3.9-8.7-3.5-13.2,0.3c-4-4.5-10.2-3.5-14.7-0.4
				c-0.9-8.8-9.8-6.6-14.9-1.4c3.1-18.9-15.4-11.8-25-5.6c-13.8,8.8-19.8,25.7-32,34.1c-3.4-10.7-16.2-5.2-21,1.5
				c-0.2-24-31.6-9.3-40.8-5.9c-3.3,7.7-18.4,39.1-7.5,45.1c2.8,1.6,23.2-4.3,27.3-4.7c31-3,62.1-2.5,93.2-4
				c55.5-2.7,109.8-12.3,164.9-19.9c119.2-16.4,243.6-13,363.7-10.5c62.2,1.3,128.5,9.7,190.2-1.3C854,524.5,838,488.7,814.1,464.6z
				"/>
			<g id="XMLID_415_">
				<path id="XMLID_457_" class="st7" d="M370.4,617.9L0,813.9V980h1400V453.7C1050.6,443.3,699.2,499.1,370.4,617.9z"/>
			</g>
			<g id="XMLID_417_">
				<path id="XMLID_453_" class="st8" d="M0,550.9V980h1400V622.4C976.1,468.8,435.8,429.8,0,550.9z"/>
				<g id="XMLID_431_">
					<path id="XMLID_432_" class="st9" d="M505.1,707l79.3,3.8c25.3-81.8,64.9-159.1,116.4-227.4c-7.1-0.4-14.3-0.8-21.4-1.1
						C605.8,543.2,545.7,620.5,505.1,707z"/>
					<path id="XMLID_437_" class="st9" d="M387.3,665.2l20.8,64.5c64.4-96.4,146.4-181.1,240.7-248.7c-9.9-0.3-19.8-0.6-29.7-0.9
						C531.4,527,452.3,590,387.3,665.2z"/>
					<path id="XMLID_438_" class="st9" d="M677.8,729.2c23.2-80.9,46.3-161.9,69.5-242.8c-5.4-0.4-10.8-0.8-16.3-1.1
						c-27.2,73-54.5,146.1-81.7,219.1L677.8,729.2z"/>
					<path id="XMLID_439_" class="st9" d="M807.4,802.5l-8.9-311.8c-9.9-0.9-19.8-1.8-29.7-2.6c-13.6,101-27.2,202-40.7,303.1
						L807.4,802.5z"/>
					<path id="XMLID_440_" class="st9" d="M207.3,733.3c101.4-106.4,223.4-192.9,357.2-253.8c-16.9,0-33.8,0.1-50.7,0.4
						c-126.6,48.8-245.6,117.4-351.1,202.7L207.3,733.3z"/>
					<path id="XMLID_520_" class="st9" d="M249,500.1C163.4,511.8,80,528.7,0,550.9V573c3.6-1.6,7.2-3.1,10.9-4.3
						C89.5,543.3,168.9,520.4,249,500.1z"/>
					<path id="XMLID_521_" class="st9" d="M117.6,614.1c101.3-54.3,208.2-98.4,318.3-131.4c-28.4,1.5-56.7,3.4-84.9,6
						c-87.4,24.3-173.5,53.3-257.9,86.7L117.6,614.1z"/>
				</g>
			</g>
			<g id="XMLID_422_">
				<g id="XMLID_14_">
					<polygon id="XMLID_416_" class="st6" points="671.4,186.2 659.6,186.2 663.4,264.8 					"/>
					<polygon id="XMLID_456_" class="st6" points="655.3,355.6 667.2,355.6 663.4,277 					"/>
					<polygon id="XMLID_458_" class="st6" points="682.9,350.7 693.2,341.2 665.3,276.2 					"/>
					<polygon id="XMLID_501_" class="st6" points="696.8,204 686.6,194.5 665.3,265.6 					"/>
					<path id="XMLID_505_" class="st6" d="M768.5,272v-2.3l8.4-6.8h-16.8l-8.4,6.8h-35.4v-5l-40,5h-8.8c-0.1-0.7-0.4-1.4-0.7-2
						l46.5-28.1l-5.9-16.4l-40.6,44.5c-1.1-1.8-3-3-5.3-3c-0.1,0-0.1,0-0.2,0l-17.4-73.7l-10.3,9.5l27.5,64.2
						c-1,0.1-1.9,0.3-2.7,0.8l-36.8-48.2l-5.9,16.4l42.1,32.2c-1.2,0.9-2,2.2-2.3,3.8l-45-11.8v19l44.9-5.6c0.1,1.6,0.9,3.1,2.1,4.1
						l-44,26.6l5.9,16.4l38.7-42.5c0.8,0.5,1.8,0.9,2.9,1l-31.1,60.8l10.3,9.5l21-70.3c0.1,0,0.2,0,0.2,0c2.2,0,4.2-1.2,5.3-3
						l38.5,50.4l5.9-16.4l-44.4-34c0.4-0.6,0.6-1.3,0.7-2h4l44.8,11.7V272h35.3l8.4,6.8h16.8l-8.4-6.8H768.5z"/>
				</g>
				<path id="XMLID_441_" class="st6" d="M732.3,625.8l3-0.5L673,271.8l-0.2-1.2h-4.7h-1.4H660L658,379.4l-2.9,0.7h2.9l-1.5,81.9
					l-2,0.6h1.9l-1.5,77.6l-3,0.9h3l-1.3,70.1l3,0.1l1.3-70.1l21.2,0l3.8,73.3l3-0.2l-3.8-73.4l34-6.8L732.3,625.8z M675,461.6
					h-13.7l13.5-4L675,461.6z M677.8,457.1H699l-21,4.1L677.8,457.1z M677.7,456.1l-3.9-76.3l14.8-2.3l13.9,78.6H677.7z
					 M670.7,379.1h-6.9l6.8-1.6L670.7,379.1z M673.6,377.3h9.9l-9.9,1.6L673.6,377.3z M670.3,273.5l18.1,102.8h-14.8l-5.3-102.8
					H670.3z M663,273.5h2.3l5.3,103l-9.6,2.2L663,273.5z M660.9,380.1l9.8,0l4,76.5l-15.3,4.5L660.9,380.1z M659.4,462.5l15.7,0
					l3.7,70.6l-20.8,6.1L659.4,462.5z M658.8,540.1l20-5.9l0.3,5.9H658.8z M682.1,539.8l-0.3-6.1h30.8L682.1,539.8z M681.7,532.6
					l-3.6-70.4l24.6-4.9l13.3,75.2H681.7z"/>
			</g>
			<g id="XMLID_451_">
				<g id="XMLID_643_">
					<path id="XMLID_418_" class="st10" d="M-9.7,553c6.5-6.9,17.2-14.7,25.5-5.4c2.3-2.5,6.7-4.2,8.6-0.7c3.3-0.3,6.5-0.1,8.4,2.7
						c6.5-8.9,11.9-17.5,23.5-20.9c11-3.2,15.9,1.7,15.4,12.3c4.1-2.2,9.4-2.7,9.4,3.9c5,0,12.5-4.1,15.9,1.5
						c6.4-4.1,9.3-11,17.7-12.6c6.4-1.3,13.4-0.9,16.2,5.2c3.1-10.7,9-20.4,22.7-19.2c6.5,0.5,13.6,8.4,11,15.3
						c6-4,13.4-5.6,12.5,4.4c6.6,0.1,14.8-4.4,17.2,3.6c5.4-3.3,8.1-8.5,14.5-11.5c8.9-4.1,18.9-5.3,28.7-5.2
						c14.9,0.2,21.1,4.8,24.8,17.9c4.7-7,26.8-15.8,26.8-0.7c12.7-8.2,48.8-20.3,53.3,3.3c5.3-2.8,18.6-4.6,22.4,0.8
						c4.8-17.8,41.3-29.8,40.2-3.4c4.5-1.5,23.3-6.7,18.2,4.8c9.5-0.2,15.7,0.1,15.1,10.6c5.7-8.1,14.9-6.4,22-1.9
						c5-6.2,10-3,16-4.7c6.9-1.9,12.9-10.7,21-13.4c13.5-4.5,24.3-0.4,23.7,14.6c9.2,1,29.4-7.7,30.1,8.8c5.4-4.3,15.5-1.4,16.6,6
						c8.3-6.6,20.4-11.4,31.5-8.6c6.9,1.8,7.5,6.1,9.1,11.7c4.4-3.8,14.4-3.4,14,4.1c4.9-0.7,8.2,1.8,8.4,6.7c4,0.2,10.4-1.6,12.8,2
						c5.3-6.8,17.2-9.8,25.5-8.5c8.2,1.3,7.4,7,7.2,14.6c14.5-6.9,29.6-19.5,45.9-8.5c1.3,0.9,2,3.8,3.5,4.4
						c4.5,1.8,10.8-2.1,15.5-1.9c7.2,0.3,12.8,5.6,14.6,12.6c8.1-3.1,17.3-2.5,21.3,7.4c13.9-3.9,32.4-4.8,37.4,13.4
						c2.6,9.7,2.6,22.3-0.1,31.9c0.2-1.2-0.5-1.5-0.7-2.5c-35.1,2.3-82.3-11.4-116.8-16.6c-88.7-13.2-178.5-4.1-267.2-18.2
						C317,594.9,204,576.6,89.7,582c-34.7,1.6-71.8,8.2-106.3,5.6C-17.1,579.9-14.9,558.6-9.7,553z"/>
					<g id="XMLID_645_">
						<path id="XMLID_650_" class="st10" d="M114,500.9c0,18.5-1.9,32-4.5,41.7c-3.7,13.8-23.4,13.8-27.1,0
							c-2.6-9.7-4.5-23.1-4.5-41.7C78,443.8,96,360,96,360S114,443.8,114,500.9z"/>
						<g id="XMLID_646_">
							<path id="XMLID_647_" class="st11" d="M96,360c0,0,18,115.5-4.4,192.3c7,2.2,15.7-1,18-9.7c2.6-9.7,4.5-23.1,4.5-41.7
								C114,443.8,96,360,96,360z"/>
						</g>
					</g>
					<g id="XMLID_654_">
						<path id="XMLID_684_" class="st10" d="M238,493.5c0,18.5-1.9,32-4.5,41.7c-3.7,13.8-23.4,13.8-27.1,0
							c-2.6-9.7-4.5-23.1-4.5-41.7c0-57.1,18-140.9,18-140.9S238,436.5,238,493.5z"/>
						<g id="XMLID_655_">
							<path id="XMLID_656_" class="st11" d="M220,352.6c0,0,18,115.5-4.4,192.3c7,2.2,15.7-1,18-9.7c2.6-9.7,4.5-23.1,4.5-41.7
								C238,436.5,220,352.6,220,352.6z"/>
						</g>
					</g>
					<g id="XMLID_618_">
						<path id="XMLID_642_" class="st10" d="M140.9,528.3c0,7.2-0.7,12.4-1.7,16.1c-1.4,5.3-9,5.3-10.5,0c-1-3.7-1.7-8.9-1.7-16.1
							c0-22,7-54.4,7-54.4S140.9,506.2,140.9,528.3z"/>
						<g id="XMLID_638_">
							<path id="XMLID_639_" class="st11" d="M134,473.8c0,0,7,44.6-1.7,74.3c2.7,0.9,6-0.4,6.9-3.7c1-3.7,1.7-8.9,1.7-16.1
								C140.9,506.2,134,473.8,134,473.8z"/>
						</g>
					</g>
					<g id="XMLID_687_">
						<path id="XMLID_692_" class="st10" d="M260,528.3c0,7.2-0.7,12.4-1.7,16.1c-1.4,5.3-9,5.3-10.5,0c-1-3.7-1.7-8.9-1.7-16.1
							c0-22,7-54.4,7-54.4S260,506.2,260,528.3z"/>
						<g id="XMLID_688_">
							<path id="XMLID_689_" class="st11" d="M253.1,473.8c0,0,7,44.6-1.7,74.3c2.7,0.9,6-0.4,6.9-3.7c1-3.7,1.7-8.9,1.7-16.1
								C260,506.2,253.1,473.8,253.1,473.8z"/>
						</g>
					</g>
					<g id="XMLID_698_">
						<path id="XMLID_704_" class="st10" d="M332.1,534.7c0,4.9-0.5,8.4-1.2,10.9c-1,3.6-6.1,3.6-7.1,0c-0.7-2.5-1.2-6.1-1.2-10.9
							c0-15,4.7-37,4.7-37S332.1,519.7,332.1,534.7z"/>
						<g id="XMLID_699_">
							<path id="XMLID_701_" class="st11" d="M327.4,497.7c0,0,4.7,30.3-1.2,50.5c1.8,0.6,4.1-0.3,4.7-2.5c0.7-2.5,1.2-6.1,1.2-10.9
								C332.1,519.7,327.4,497.7,327.4,497.7z"/>
						</g>
					</g>
					<g id="XMLID_717_">
						<path id="XMLID_723_" class="st10" d="M566.2,560c0,4.9-0.5,8.4-1.2,10.9c-1,3.6-6.1,3.6-7.1,0c-0.7-2.5-1.2-6.1-1.2-10.9
							c0-15,4.7-37,4.7-37S566.2,545,566.2,560z"/>
						<g id="XMLID_718_">
							<path id="XMLID_719_" class="st11" d="M561.5,523.1c0,0,4.7,30.3-1.2,50.5c1.8,0.6,4.1-0.3,4.7-2.5c0.7-2.5,1.2-6.1,1.2-10.9
								C566.2,545,561.5,523.1,561.5,523.1z"/>
						</g>
					</g>
					<g id="XMLID_728_">
						<path id="XMLID_733_" class="st10" d="M598.6,558.2c0,7.1-0.7,12.3-1.7,16.1c-1.4,5.3-9,5.3-10.4,0c-1-3.7-1.7-8.9-1.7-16.1
							c0-22,6.9-54.3,6.9-54.3S598.6,536.1,598.6,558.2z"/>
						<g id="XMLID_729_">
							<path id="XMLID_730_" class="st11" d="M591.7,503.8c0,0,7,44.5-1.7,74.2c2.7,0.9,6-0.4,6.9-3.7c1-3.7,1.7-8.9,1.7-16.1
								C598.6,536.1,591.7,503.8,591.7,503.8z"/>
						</g>
					</g>
				</g>
				<path id="XMLID_455_" class="st12" d="M938.3,671C638.7,566.1,315.7,528.6,0,561.4V980h1400V771.7L938.3,671z"/>
				<g id="XMLID_429_">
					<path id="XMLID_434_" class="st8" d="M61,939.8C53.5,834.6,32.9,730.3,0,630v270.6c1.6,16.9,3.1,33.9,4.7,50.8L61,939.8z"/>
					<path id="XMLID_442_" class="st8" d="M816.8,731.6l87.9-0.7c-71-56.3-150.6-101.8-235.1-134.6c-76.1-16-153-27.8-230.3-35.5
						c47.7,11.2,95.3,21.4,142.9,41.2C664.9,636.3,743.8,679.8,816.8,731.6z"/>
					<path id="XMLID_522_" class="st8" d="M47.2,557c-15.8,1.3-31.5,2.7-47.2,4.4v2.7c116.8,116.6,206.9,260,261.1,415.9h127.1
						C306,817.1,189,671.8,47.2,557z"/>
					<path id="XMLID_524_" class="st8" d="M619,816.7l44.7-59.9c-100.9-93.5-223-163.9-354.3-205.1c-28.8-1.1-57.7-1.7-86.6-1.7
						C372.5,608.1,508.9,699.9,619,816.7z"/>
					<path id="XMLID_525_" class="st8" d="M417.2,895.2l85.9-49.2c-85.7-127.4-207.1-230.5-346.4-295c-18.9,0.6-37.8,1.4-56.7,2.5
						C231.5,639.2,341.6,757.6,417.2,895.2z"/>
				</g>
			</g>
			<g id="XMLID_17_">
				<polygon id="XMLID_9_" class="st13" points="1060.9,226.5 875.4,90.3 763.6,225 763.6,655.3 1060.9,650.6 				"/>
				<polygon id="XMLID_581_" class="st14" points="875.4,90.3 769.7,216.9 768.9,227.4 789.1,247.6 894.3,125.3 1059.7,231.7 				
					"/>
				<polygon id="XMLID_6_" class="st14" points="1270.6,197.9 1270.6,657 1060.9,657 1060.9,180.1 				"/>
				<g id="XMLID_580_" class="st15">
					<polygon id="XMLID_615_" class="st16" points="1106.2,348.5 1149.3,348.3 1149.3,289.4 1106.2,289.7 					"/>
					<polygon id="XMLID_614_" class="st14" points="1110.3,342.9 1145.2,342.7 1145.2,295.1 1110.3,295.3 					"/>
					<polygon id="XMLID_613_" class="st13" points="1110.3,295.3 1117.2,295.2 1117.2,342.8 1110.3,342.9 					"/>
				</g>
				<g id="XMLID_619_" class="st17">
					<polygon id="XMLID_622_" class="st16" points="1198.8,348.5 1241.9,348.3 1241.9,289.4 1198.8,289.7 					"/>
					<polygon id="XMLID_621_" class="st14" points="1202.9,342.9 1237.8,342.7 1237.8,295.1 1202.9,295.3 					"/>
					<polygon id="XMLID_620_" class="st13" points="1202.9,295.3 1209.8,295.2 1209.8,342.8 1202.9,342.9 					"/>
				</g>
				<polygon id="XMLID_7_" class="st13" points="1060.9,373.7 1192.6,476.1 1192.6,655.3 1060.9,655.3 				"/>
				<g id="XMLID_65_">
					<polygon id="XMLID_585_" class="st18" points="1155.4,572.8 1155.4,610.2 1155.4,628.7 1156.4,628.7 1156.4,610.2 
						1156.4,572.8 1156.4,447.9 1155.4,447.9 					"/>
					<rect id="XMLID_584_" x="1108.3" y="469.5" class="st18" width="1" height="54"/>
					<rect id="XMLID_583_" x="1084.9" y="392.7" class="st18" width="1" height="109.6"/>
					<rect id="XMLID_582_" x="1084.9" y="523.5" class="st18" width="1" height="15.5"/>
					<rect id="XMLID_579_" x="1141.3" y="484" class="st18" width="1" height="15.5"/>
					<rect id="XMLID_577_" x="1126.8" y="436.4" class="st18" width="1" height="91.5"/>
					<rect id="XMLID_576_" x="1182" y="468.6" class="st18" width="1" height="98.8"/>
					<rect id="XMLID_574_" x="1108.3" y="591.2" class="st18" width="1" height="18.6"/>
					<rect id="XMLID_573_" x="1084.9" y="585.8" class="st18" width="1" height="5.4"/>
					<rect id="XMLID_572_" x="1141.3" y="546.4" class="st18" width="1" height="5.4"/>
					<rect id="XMLID_571_" x="1126.8" y="536.6" class="st18" width="1" height="31.5"/>
					<rect id="XMLID_570_" x="1182" y="576.1" class="st18" width="1" height="52.6"/>
				</g>
				<polygon id="XMLID_575_" class="st19" points="768.9,227.4 1185.3,643.8 763.6,643.8 763.6,222 				"/>
				<g id="XMLID_316_">
					<polygon id="XMLID_379_" class="st18" points="911,310.5 911,354.8 911,376.7 912,376.7 912,354.8 912,310.5 912,162.6 
						911,162.6 					"/>
					<rect id="XMLID_378_" x="886" y="98.2" class="st18" width="1" height="152.1"/>
					<rect id="XMLID_377_" x="863.9" y="99.7" class="st18" width="1" height="57.1"/>
					<rect id="XMLID_376_" x="863.9" y="217.5" class="st18" width="1" height="54"/>
					<rect id="XMLID_375_" x="840.5" y="135.3" class="st18" width="1" height="115"/>
					<rect id="XMLID_339_" x="840.5" y="271.5" class="st18" width="1" height="15.5"/>
					<rect id="XMLID_337_" x="826" y="166.5" class="st18" width="1" height="39.7"/>
					<rect id="XMLID_336_" x="826" y="223.9" class="st18" width="1" height="91.5"/>
					<rect id="XMLID_335_" x="800.1" y="167.8" class="st18" width="1" height="147.6"/>
					<rect id="XMLID_334_" x="978" y="162.6" class="st18" width="1" height="87.7"/>
					<rect id="XMLID_333_" x="978" y="271.5" class="st18" width="1" height="15.5"/>
					<rect id="XMLID_332_" x="963.5" y="160.6" class="st18" width="1" height="45.7"/>
					<rect id="XMLID_331_" x="963.5" y="223.9" class="st18" width="1" height="91.5"/>
					<rect id="XMLID_330_" x="937.6" y="130.8" class="st18" width="1" height="184.6"/>
					<rect id="XMLID_329_" x="886" y="346.5" class="st18" width="1" height="29.9"/>
					<rect id="XMLID_328_" x="863.9" y="364.9" class="st18" width="1" height="11.2"/>
					<rect id="XMLID_327_" x="863.9" y="339.2" class="st18" width="1" height="18.6"/>
					<rect id="XMLID_326_" x="840.5" y="346.5" class="st18" width="1" height="28.9"/>
					<rect id="XMLID_325_" x="840.5" y="333.9" class="st18" width="1" height="5.4"/>
					<rect id="XMLID_324_" x="826" y="361.7" class="st18" width="1" height="13.7"/>
					<rect id="XMLID_323_" x="826" y="324.1" class="st18" width="1" height="31.5"/>
					<rect id="XMLID_322_" x="800.1" y="324.1" class="st18" width="1" height="50.8"/>
					<rect id="XMLID_321_" x="978" y="346.5" class="st18" width="1" height="30.2"/>
					<rect id="XMLID_320_" x="978" y="333.9" class="st18" width="1" height="5.4"/>
					<rect id="XMLID_319_" x="963.5" y="361.7" class="st18" width="1" height="15.7"/>
					<rect id="XMLID_318_" x="963.5" y="324.1" class="st18" width="1" height="31.5"/>
					<rect id="XMLID_317_" x="937.6" y="324.1" class="st18" width="1" height="52.6"/>
					<polygon id="XMLID_562_" class="st18" points="911,548.9 911,593.3 911,615.1 912,615.1 912,593.3 912,548.9 912,401.1 
						911,401.1 					"/>
					<rect id="XMLID_561_" x="776.4" y="377.4" class="st18" width="1" height="152.1"/>
					<rect id="XMLID_560_" x="863.9" y="455.9" class="st18" width="1" height="54"/>
					<rect id="XMLID_563_" x="863.9" y="374" class="st18" width="1" height="54"/>
					<rect id="XMLID_559_" x="840.5" y="373.8" class="st18" width="1" height="115"/>
					<rect id="XMLID_558_" x="840.5" y="509.9" class="st18" width="1" height="15.5"/>
					<rect id="XMLID_557_" x="901.5" y="375.2" class="st18" width="1" height="39.7"/>
					<rect id="XMLID_556_" x="826" y="462.3" class="st18" width="1" height="91.5"/>
					<rect id="XMLID_555_" x="800.1" y="406.3" class="st18" width="1" height="147.6"/>
					<rect id="XMLID_554_" x="1003.3" y="374.7" class="st18" width="1" height="87.7"/>
					<rect id="XMLID_565_" x="1021.5" y="470.7" class="st18" width="1" height="87.7"/>
					<rect id="XMLID_553_" x="978" y="509.9" class="st18" width="1" height="15.5"/>
					<rect id="XMLID_552_" x="963.5" y="399" class="st18" width="1" height="45.7"/>
					<rect id="XMLID_564_" x="1021" y="385.9" class="st18" width="1" height="45.7"/>
					<rect id="XMLID_569_" x="1033" y="460.5" class="st18" width="1" height="45.7"/>
					<rect id="XMLID_551_" x="963.5" y="462.3" class="st18" width="1" height="91.5"/>
					<rect id="XMLID_550_" x="937.6" y="369.2" class="st18" width="1" height="184.6"/>
					<polygon id="XMLID_568_" class="st18" points="1010.4,430.7 1010.4,475.1 1010.4,497 1011.4,497 1011.4,475.1 1011.4,430.7 
						1011.4,282.9 1010.4,282.9 					"/>
					<rect id="XMLID_567_" x="1016.9" y="199.2" class="st18" width="1" height="45.7"/>
					<rect id="XMLID_566_" x="1037" y="251" class="st18" width="1" height="184.6"/>
					<rect id="XMLID_549_" x="886" y="584.9" class="st18" width="1" height="29.9"/>
					<rect id="XMLID_547_" x="863.9" y="603.3" class="st18" width="1" height="11.2"/>
					<rect id="XMLID_546_" x="863.9" y="577.6" class="st18" width="1" height="18.6"/>
					<rect id="XMLID_539_" x="840.5" y="584.9" class="st18" width="1" height="28.9"/>
					<rect id="XMLID_424_" x="840.5" y="572.3" class="st18" width="1" height="5.4"/>
					<rect id="XMLID_410_" x="826" y="600.1" class="st18" width="1" height="13.7"/>
					<rect id="XMLID_409_" x="826" y="562.5" class="st18" width="1" height="31.5"/>
					<rect id="XMLID_293_" x="800.1" y="562.5" class="st18" width="1" height="50.8"/>
					<rect id="XMLID_292_" x="978" y="584.9" class="st18" width="1" height="30.2"/>
					<rect id="XMLID_290_" x="978" y="572.3" class="st18" width="1" height="5.4"/>
					<rect id="XMLID_289_" x="963.5" y="600.1" class="st18" width="1" height="15.7"/>
					<rect id="XMLID_76_" x="963.5" y="562.5" class="st18" width="1" height="31.5"/>
					<rect id="XMLID_75_" x="937.6" y="562.5" class="st18" width="1" height="52.6"/>
				</g>
				<polygon id="XMLID_8_" class="st20" points="723.3,264.7 763.6,265.4 763.6,222 				"/>
				<polygon id="XMLID_3_" class="st21" points="1126.8,265.4 1059.7,223.2 874.1,77.1 1185.2,97.5 1297,216.9 1364.2,274.3 				"/>
				<polygon id="XMLID_13_" class="st14" points="1364.2,464.1 1192.6,430 1192.6,655.3 1364.2,655.3 				"/>
				<polygon id="XMLID_16_" class="st22" points="1297,216.9 1063.8,216.9 1151.3,266.3 1364.2,274.7 				"/>
				<polygon id="XMLID_10_" class="st21" points="1060.9,370.3 1205.8,486.4 1406.6,486.4 1270.6,370.3 				"/>
				<g id="XMLID_11_">
					<rect id="XMLID_12_" x="754.1" y="370.3" class="st23" width="306.8" height="6.8"/>
				</g>
				<g id="XMLID_15_">
					<polygon id="XMLID_294_" class="st16" points="807.4,649.4 889.4,644.5 889.4,476.2 807.4,476.9 					"/>
					<polygon id="XMLID_291_" class="st14" points="814.4,649 882.4,644.9 882.4,486.2 814.4,486.3 					"/>
					<polygon id="XMLID_288_" class="st13" points="814.4,486.3 826.3,486.2 826.3,648.2 814.4,649 					"/>
				</g>
				<g id="XMLID_73_">
					<polygon id="XMLID_296_" class="st16" points="935.4,649.4 1017.4,644.5 1017.4,476.2 935.4,476.9 					"/>
					<polygon id="XMLID_77_" class="st14" points="942.4,649 1010.4,644.9 1010.4,486.2 942.4,486.3 					"/>
					<polygon id="XMLID_74_" class="st13" points="942.4,486.3 954.3,486.2 954.3,648.2 942.4,649 					"/>
				</g>
				<g id="XMLID_180_">
					<polygon id="XMLID_277_" class="st16" points="803.2,306.7 846.3,306.5 846.3,247.6 803.2,247.9 					"/>
					<polygon id="XMLID_273_" class="st14" points="807.3,301.1 842.2,300.9 842.2,253.3 807.3,253.5 					"/>
					<polygon id="XMLID_269_" class="st13" points="807.3,253.5 814.2,253.4 814.2,301 807.3,301.1 					"/>
				</g>
				<g id="XMLID_587_">
					<polygon id="XMLID_590_" class="st16" points="807.3,439.4 833.3,439.3 833.3,414.2 807.3,414.3 					"/>
					<polygon id="XMLID_589_" class="st14" points="809.8,437 830.9,436.9 830.9,416.6 809.8,416.7 					"/>
					<polygon id="XMLID_588_" class="st13" points="809.8,416.7 814,416.7 814,437 809.8,437 					"/>
				</g>
				<g id="XMLID_592_">
					<polygon id="XMLID_596_" class="st16" points="863.2,439.4 889.2,439.3 889.2,414.2 863.2,414.3 					"/>
					<polygon id="XMLID_595_" class="st14" points="865.7,437 886.7,436.9 886.7,416.6 865.7,416.7 					"/>
					<polygon id="XMLID_594_" class="st13" points="865.7,416.7 869.9,416.7 869.9,437 865.7,437 					"/>
				</g>
				<g id="XMLID_607_">
					<polygon id="XMLID_610_" class="st16" points="933.5,439.4 959.5,439.3 959.5,414.2 933.5,414.3 					"/>
					<polygon id="XMLID_609_" class="st14" points="936,437 957,436.9 957,416.6 936,416.7 					"/>
					<polygon id="XMLID_608_" class="st13" points="936,416.7 940.1,416.7 940.1,437 936,437 					"/>
				</g>
				<g id="XMLID_599_">
					<polygon id="XMLID_604_" class="st16" points="989.4,439.4 1015.4,439.3 1015.4,414.2 989.4,414.3 					"/>
					<polygon id="XMLID_603_" class="st14" points="991.9,437 1012.9,436.9 1012.9,416.6 991.9,416.7 					"/>
					<polygon id="XMLID_601_" class="st13" points="991.9,416.7 996,416.7 996,437 991.9,437 					"/>
				</g>
				<g id="XMLID_270_">
					<polygon id="XMLID_276_" class="st16" points="942.4,306.7 985.5,306.5 985.5,247.6 942.4,247.9 					"/>
					<polygon id="XMLID_275_" class="st14" points="946.5,301.1 981.4,300.9 981.4,253.3 946.5,253.5 					"/>
					<polygon id="XMLID_272_" class="st13" points="946.5,253.5 953.4,253.4 953.4,301 946.5,301.1 					"/>
				</g>
				<g id="XMLID_50_">
					<g id="XMLID_46_">
						<g id="XMLID_61_">
							<g id="XMLID_66_">
								<polygon id="XMLID_67_" class="st14" points="925.4,165.6 925.9,162.3 853.7,162.5 853.2,165.8 								"/>
							</g>
							<g id="XMLID_62_">
								<polygon id="XMLID_63_" class="st18" points="853.7,162.5 862.7,162.4 862.7,165.8 853.2,165.8 								"/>
							</g>
						</g>
						<g id="XMLID_54_">
							<g id="XMLID_59_">
								<polygon id="XMLID_60_" class="st14" points="925.4,173 925.9,169.7 853.7,169.9 853.2,173.2 								"/>
							</g>
							<g id="XMLID_55_">
								<polygon id="XMLID_56_" class="st18" points="853.7,169.9 862.7,169.9 862.7,173.2 853.2,173.2 								"/>
							</g>
						</g>
						<g id="XMLID_47_">
							<g id="XMLID_52_">
								<polygon id="XMLID_53_" class="st14" points="925.4,180.4 925.9,177.1 853.7,177.3 853.2,180.6 								"/>
							</g>
							<g id="XMLID_48_">
								<polygon id="XMLID_49_" class="st18" points="853.7,177.3 862.7,177.3 862.7,180.6 853.2,180.6 								"/>
							</g>
						</g>
					</g>
					<g id="XMLID_51_">
						<g id="XMLID_535_">
							<g id="XMLID_540_">
								<polygon id="XMLID_541_" class="st14" points="925.4,186.2 925.9,182.9 853.7,183.1 853.2,186.4 								"/>
							</g>
							<g id="XMLID_536_">
								<polygon id="XMLID_537_" class="st18" points="853.7,183.1 862.7,183.1 862.7,186.4 853.2,186.4 								"/>
							</g>
						</g>
						<g id="XMLID_528_">
							<g id="XMLID_533_">
								<polygon id="XMLID_534_" class="st14" points="925.4,193.7 925.9,190.3 853.7,190.5 853.2,193.9 								"/>
							</g>
							<g id="XMLID_529_">
								<polygon id="XMLID_530_" class="st18" points="853.7,190.5 862.7,190.5 862.7,193.8 853.2,193.9 								"/>
							</g>
						</g>
						<g id="XMLID_57_">
							<g id="XMLID_426_">
								<polygon id="XMLID_433_" class="st14" points="925.4,201.1 925.9,197.7 853.7,197.9 853.2,201.3 								"/>
							</g>
							<g id="XMLID_58_">
								<polygon id="XMLID_64_" class="st18" points="853.7,197.9 862.7,197.9 862.7,201.3 853.2,201.3 								"/>
							</g>
						</g>
					</g>
				</g>
				<g id="XMLID_423_">
					<polygon id="XMLID_425_" class="st23" points="1406.6,491.4 1204.4,491.4 1059.7,377.2 1060.9,370.3 1207.2,483.4 
						1406.6,483.4 					"/>
				</g>
				<g id="XMLID_2_">
					<polygon id="XMLID_414_" class="st23" points="1119.5,265.4 1055.7,229.5 1055.3,229.2 876.6,97.6 768.9,227.4 723.3,264.7 
						700,264 758.3,216.7 874.1,77.1 1063.8,216.9 1151.3,266.3 					"/>
				</g>
				<linearGradient id="XMLID_23_" gradientUnits="userSpaceOnUse" x1="959.0792" y1="321.8843" x2="959.0792" y2="414.8466">
					<stop  offset="0" style="stop-color:#160A0C"/>
					<stop  offset="1" style="stop-color:#160B0D;stop-opacity:0"/>
				</linearGradient>
				<polygon id="XMLID_578_" class="st24" points="761.7,377.1 841.3,456.6 1156.4,456.6 1059.7,377.2 				"/>
				<polygon id="XMLID_586_" class="st25" points="1060.9,370.3 1406.6,483.4 1207.2,483.4 				"/>
				<g id="XMLID_632_" class="st15">
					<polygon id="XMLID_635_" class="st16" points="1220.3,569.8 1263.5,569.6 1263.5,510.7 1220.3,511 					"/>
					<polygon id="XMLID_634_" class="st14" points="1224.5,564.2 1259.3,564 1259.3,516.4 1224.5,516.6 					"/>
					<polygon id="XMLID_633_" class="st13" points="1224.5,516.6 1231.3,516.5 1231.3,564.1 1224.5,564.2 					"/>
				</g>
				<g id="XMLID_625_" class="st17">
					<polygon id="XMLID_628_" class="st16" points="1291.3,569.8 1334.5,569.6 1334.5,510.7 1291.3,511 					"/>
					<polygon id="XMLID_627_" class="st14" points="1295.5,564.2 1330.4,564 1330.4,516.4 1295.5,516.6 					"/>
					<polygon id="XMLID_626_" class="st13" points="1295.5,516.6 1302.4,516.5 1302.4,564.1 1295.5,564.2 					"/>
				</g>
			</g>
			<g id="XMLID_695_">
				<path id="XMLID_700_" class="st10" d="M189.7,534.7c0,4.9-0.5,8.4-1.2,10.9c-1,3.6-6.1,3.6-7.1,0c-0.7-2.5-1.2-6.1-1.2-10.9
					c0-15,4.7-37,4.7-37S189.7,519.7,189.7,534.7z"/>
				<g id="XMLID_696_">
					<path id="XMLID_697_" class="st11" d="M184.9,497.7c0,0,4.7,30.3-1.2,50.5c1.8,0.6,4.1-0.3,4.7-2.5c0.7-2.5,1.2-6.1,1.2-10.9
						C189.7,519.7,184.9,497.7,184.9,497.7z"/>
				</g>
			</g>
			<g id="XMLID_452_">
				<path id="XMLID_454_" class="st26" d="M0,809.1V980h1400V637.3C928.2,597.1,448.1,656.1,0,809.1z"/>
			</g>
			<linearGradient id="XMLID_24_" gradientUnits="userSpaceOnUse" x1="651.2245" y1="454.995" x2="705.7616" y2="754.9288">
				<stop  offset="0" style="stop-color:#E2D796"/>
				<stop  offset="1" style="stop-color:#D5CA8E;stop-opacity:0"/>
			</linearGradient>
			<path id="XMLID_19_" class="st27" d="M0,809.1c0,0,591-191.1,1400,170.9V637.3C928.2,597.1,448.1,656.1,0,809.1z"/>
			<linearGradient id="XMLID_25_" gradientUnits="userSpaceOnUse" x1="624.0723" y1="597.7308" x2="717.0815" y2="993.7704">
				<stop  offset="0" style="stop-color:#E2D796"/>
				<stop  offset="4.661685e-002" style="stop-color:#CDBD85"/>
				<stop  offset="0.1211" style="stop-color:#B29B6E"/>
				<stop  offset="0.2034" style="stop-color:#9A7D5A"/>
				<stop  offset="0.294" style="stop-color:#87654A"/>
				<stop  offset="0.3963" style="stop-color:#78533D"/>
				<stop  offset="0.517" style="stop-color:#6E4635"/>
				<stop  offset="0.6739" style="stop-color:#683E2F"/>
				<stop  offset="1" style="stop-color:#663C2E"/>
			</linearGradient>
			<path id="XMLID_413_" class="st28" d="M882.4,862.1c0,0,218.1-31.5,310.1-73.5c67-30.6-107.9-60.4-244.2-82.4
				c0,0-51.7-44,64.3-79.7c-25.8,0.7-51.5,1.7-77.3,3.1c-2.6,0.9-89.3,32.4-104.9,56.4c-133.5-3.6,53.7-52.7,58.8-53.8
				c-27.4,1.8-54.8,3.9-82.2,6.3c-8,1.4-157.2,28.9-123.6,43.5C718,697,951,735,894,757c-48.2,18.6-695.6,80.9-894,99.7V980h1400
				V862.1H882.4z"/>
		</g>
	</g>
</g>
</svg>
